<svg xmlns="http://www.w3.org/2000/svg" width="35.244" height="34.445" viewBox="0 0 35.244 34.445">
  <path id="パス_729" data-name="パス 729" d="M15.072,15.8c0-.924.032-2.294.032-3.25-.063-.414-.286-.542-.765-.542a.722.722,0,0,1-.542-.541c-.032-.924.319-1.115.414-1.115l.605-.032c.414-.128.319-.765.446-1.147a.469.469,0,0,0,.032-.223c0-.446-.191-1.083-.191-1.657,0-.51.128-1.4.128-2.135,0-.35-.1-.669-.1-1.052,0-.605.127-1.243.127-1.944-.032-.223-.7-.414-.988-.478-.191-.064-.255-.319-.255-.542A1.053,1.053,0,0,1,14.18.542a.34.34,0,0,1,.35-.159c.478,0,.606-.032,1.02-.032.446,0,.669.1,1.4.1.51,0,1.115-.064,1.689-.064a2.905,2.905,0,0,1,1.052.159c.669.191,1.051.1,1.051.446a.783.783,0,0,1-.542.765A1.2,1.2,0,0,0,19.5,2.8a14.425,14.425,0,0,0-.159,2.39c.032,1.88.159,2.008.159,2.9,0,.478-.032.956-.032,1.37a1.362,1.362,0,0,0,.127.733c.064.128.159.159.319.159A3.876,3.876,0,0,0,21,10.164a1.38,1.38,0,0,0,.16-.032c.063,0,.127-.032.191-.032a3.778,3.778,0,0,1,.829-.064,12.267,12.267,0,0,1,1.593.159,2.237,2.237,0,0,0,.478.032c.7,0,1.4-.128,2.23-.191.446,0,.829.159,1.243.159.191-.1.159-.542.223-1.211a2.391,2.391,0,0,0,.032-.478c0-.51-.1-1.02-.1-1.721,0-.574-.1-.86-.1-1.306a4.114,4.114,0,0,1,.1-.8c.032-.319.032-.637.032-.988,0-.669-.032-1.338-.032-1.689,0-.574-.829-.064-.924-1.02a.622.622,0,0,1-.032-.223c0-.605.637-.51,1.37-.638A4.307,4.307,0,0,1,29.187,0c.478,0,.956.1,2.262.1.7,0,1.084.064,1.211.319a.542.542,0,0,1,.159.351.745.745,0,0,1-.223.414c-.255.382-.7.159-.828.574a2.428,2.428,0,0,0-.16,1.051c0,.319.032.669.032.988.032.669.064,1.562.064,2.262a21.481,21.481,0,0,0,.319,2.836c.032.446.064.7.064.956,0,.51-.064.86-.064,2.008a19.48,19.48,0,0,0,.191,3.314c.159,1.211.159,4.015.159,4.4,0,.255.605.605.956.605.414.064.573.223.573.7,0,.319-.159.383-.414.383-.127,0-.319-.032-.478-.032-.414,0-1.306.1-2.071.159-.86,0-1.562-.032-2.2-.032-.286,0-.605,0-.988.032-.382,0-.51-.159-.51-.35s.063-.319.063-.446c0-.35.383-.605.605-.924a7.656,7.656,0,0,0,.223-1.816c0-.924-.032-3.027-.1-3.537a11.183,11.183,0,0,0-.319-2.422,3.638,3.638,0,0,0-1.465-.574,2.2,2.2,0,0,0-.414.064,2.188,2.188,0,0,1-.765.1c-.414,0-.765-.064-1.115-.064-.128,0-.223.032-.319.032-.765.1-1.465.032-2.2.127-.669.064-1.274-.032-1.625.287a.854.854,0,0,0-.223.7c0,1.816.064,2.167.064,2.868,0,1.5-.064,2.071-.064,2.8a23.45,23.45,0,0,1-.86,5,3.643,3.643,0,0,1-.414,1.306c-.318.574-.318,1.243-.573,1.689-.1.16-.382.669-.765,1.243a13.376,13.376,0,0,1,2.2,1.307,17.7,17.7,0,0,0,3.5,2.071c.255,0,.829.51,1.593.8a9.184,9.184,0,0,0,3.091.733,11.718,11.718,0,0,0,2.995.064,4.27,4.27,0,0,0,2.517-1.211,4.54,4.54,0,0,0,1.147-2.772c0-1.243-.255-1.625-.541-1.817s-1.083-.924-1.5-.956-1.593-.191-1.816.064-.829,1.37-1.5,1.37a.887.887,0,0,1-.988-1.02c0-.669.956-1.529,2.262-1.529a6.263,6.263,0,0,1,3.537.892A4.531,4.531,0,0,1,34.763,26.7a3.981,3.981,0,0,1,.478,2.071,6.874,6.874,0,0,1-1.625,3.6A7.655,7.655,0,0,1,31.195,34a12.731,12.731,0,0,1-2.007.446,21.024,21.024,0,0,1-2.931-.191c-1.052-.127-1.243-.382-2.326-.574-.255-.032-.988-.7-1.753-.956a16.583,16.583,0,0,1-1.689-.956c-.573-.319-1.784-.924-2.167-1.179-.191-.159-1.37-.956-2.39-1.625a4.953,4.953,0,0,1-.733.828,8.339,8.339,0,0,1-2.135,1.5c-.255,0-.477.541-.828.733a15.814,15.814,0,0,1-3,1.147c-.541.032-1.243.16-2.613.16a7.92,7.92,0,0,1-4.079-.8c-.414-.319-1.147-.542-1.5-.988A5.484,5.484,0,0,1,0,28.1c0-1.561,1.5-3.25,2.677-3.887a6.776,6.776,0,0,1,3.505-.86,6.612,6.612,0,0,1,3.25.541,2.924,2.924,0,0,0,1.561.446c.319-.064.8.255,1.371.51A11.066,11.066,0,0,1,14.5,25.905c.35-1.147.7-3.25.7-8.03,0-.414-.1-.86-.128-2.071M13.733,27.658a2.6,2.6,0,0,1-.669-.637,3.039,3.039,0,0,0-1.625-.86c-.637-.191-.765-.669-1.689-.956a12.517,12.517,0,0,0-2.868-.733,7.336,7.336,0,0,0-2.39,0c-.733.127-.7-.1-1.5.51s-1.5,1.083-1.689,1.561a3.8,3.8,0,0,0-.478,1.689,2.35,2.35,0,0,0,.223,1.434c.319.414.765.669.829,1.051A1.574,1.574,0,0,0,2.8,31.7a13.112,13.112,0,0,0,3.186.829A5.447,5.447,0,0,0,8,32.342a16.176,16.176,0,0,0,3.059-1.306c.733-.319.637-.765.892-.7s.733-.86,1.052-1.179a6.449,6.449,0,0,0,.733-1.5" fill="#505050"/>
</svg>
