<svg id="グループ_312" data-name="グループ 312" xmlns="http://www.w3.org/2000/svg" xmlns:xlink="http://www.w3.org/1999/xlink" width="238.068" height="114.438" viewBox="0 0 238.068 114.438">
  <defs>
    <clipPath id="clip-path">
      <rect id="長方形_145" data-name="長方形 145" width="238.068" height="114.438" fill="none"/>
    </clipPath>
  </defs>
  <g id="グループ_311" data-name="グループ 311" clip-path="url(#clip-path)">
    <path id="パス_827" data-name="パス 827" d="M54.745,114.018a58.079,58.079,0,0,1,3.322-19.26,61.091,61.091,0,0,1,9.16-16.8A65.445,65.445,0,0,1,81.166,64.537a70.453,70.453,0,0,1,17.885-9.178,73.319,73.319,0,0,1,41.541-1.768c.186.046.371.094.557.142.089.023.648.173.328.086q.644.176,1.284.363,1.229.36,2.444.762t2.4.844l.615.232c.25.094-.1-.039-.124-.048l.35.137q.609.241,1.214.493,1.163.484,2.307,1.01.549.252,1.093.513c.166.079.33.175.5.242-.618-.245.077.041.232.12q1.113.563,2.205,1.164.523.29,1.042.587c.186.106.372.214.557.322.216.127.57.368.139.08,1.392.931,2.835,1.776,4.205,2.744l.445.316c.061.044.378.275.124.089-.237-.173.011.009.05.037.34.253.679.505,1.015.762q.969.743,1.911,1.519t1.85,1.58l.268.24-.053-.048.4.365q.494.456.979.923,1.74,1.672,3.353,3.471a60.376,60.376,0,0,1,5.722,7.491,58.282,58.282,0,0,1,9.3,27.077c.135,1.619.2,3.243.2,4.868,0,.319.6.806.787.957a6.964,6.964,0,0,0,1.655.99c.39.163,1.991.851,1.989,0a58.769,58.769,0,0,0-3.4-19.651A62.175,62.175,0,0,0,179.036,77.1a71.362,71.362,0,0,0-15.209-14.4,77.521,77.521,0,0,0-41.1-13.982,75.939,75.939,0,0,0-21.8,2.206,71.444,71.444,0,0,0-19.142,7.9A68.321,68.321,0,0,0,66.26,71.476,62.373,62.373,0,0,0,55.45,87.925a59.279,59.279,0,0,0-4.927,19.19q-.21,2.474-.209,4.959c0,.318.6.807.787.957a6.938,6.938,0,0,0,1.654.99c.393.164,1.989.851,1.99,0" fill="#4a647d"/>
    <path id="パス_828" data-name="パス 828" d="M121.517,2V38c0,.4.005,1.961.629,2,.6.036.621-1.739.621-2V2c0-.4,0-1.96-.629-2-.6-.037-.621,1.738-.621,2" fill="#4a647d"/>
    <path id="パス_829" data-name="パス 829" d="M83.985,18.129l2.752,6.921,4.416,11.106q.505,1.274,1.013,2.548c.277.7,1.282,1.237,1.894,1.6.137.08,1.6.775,1.437.36l-2.751-6.921L88.33,22.632q-.507-1.273-1.013-2.548c-.277-.7-1.283-1.237-1.894-1.595-.137-.08-1.6-.775-1.438-.36" fill="#4a647d"/>
    <path id="パス_830" data-name="パス 830" d="M79.91,7.88q.951,2.4,1.9,4.79.136.346.275.692a2.229,2.229,0,0,0,.632.709,8.3,8.3,0,0,0,1.262.886,3.8,3.8,0,0,0,1.1.507c.111.022.434.091.339-.147q-.951-2.394-1.9-4.79c-.092-.231-.184-.461-.275-.692a2.244,2.244,0,0,0-.633-.709,8.363,8.363,0,0,0-1.261-.886,3.841,3.841,0,0,0-1.1-.507c-.112-.021-.435-.091-.339.147" fill="#4a647d"/>
    <path id="パス_831" data-name="パス 831" d="M42.958,27.145l8.581,9.479L65.1,51.6l3.1,3.427a2.323,2.323,0,0,0,.886.3,11.7,11.7,0,0,0,1.522.243c.188.019,1.662.087,1.434-.165l-8.581-9.479L49.9,30.952l-3.1-3.427a2.329,2.329,0,0,0-.886-.3,11.7,11.7,0,0,0-1.522-.243c-.188-.019-1.662-.087-1.434.165" fill="#4a647d"/>
    <path id="パス_832" data-name="パス 832" d="M30.011,64.328l6.8,3.666,10.861,5.854,2.522,1.36a5.432,5.432,0,0,0,2.715.381c.3-.018,1.5-.173.765-.569l-6.8-3.666L36.013,65.5l-2.522-1.36a5.433,5.433,0,0,0-2.715-.381c-.3.018-1.5.173-.765.569" fill="#4a647d"/>
    <path id="パス_833" data-name="パス 833" d="M16.434,57.009l6.389,3.444.922.5a3.79,3.79,0,0,0,1.175.305,7.35,7.35,0,0,0,1.54.076c.293-.021,1.5-.172.765-.569l-6.389-3.444-.922-.5a3.79,3.79,0,0,0-1.175-.305,7.35,7.35,0,0,0-1.54-.076c-.293.021-1.5.172-.765.569" fill="#4a647d"/>
    <path id="パス_834" data-name="パス 834" d="M35.174,100.435l6.246,1.028.9.149c.378.062.237-1.843.217-2.03a6.476,6.476,0,0,0-.255-1.4c-.057-.17-.13-.52-.345-.555L35.694,96.6l-.9-.149c-.378-.062-.237,1.843-.218,2.03a6.476,6.476,0,0,0,.255,1.4c.058.17.131.52.345.555" fill="#4a647d"/>
    <path id="パス_835" data-name="パス 835" d="M2.191,95l9.547,1.572,15.151,2.494,3.5.576c.378.062.237-1.843.218-2.03-.038-.353-.093-1.869-.6-1.952l-9.547-1.572L5.306,91.6l-3.5-.576c-.378-.062-.237,1.843-.218,2.03.038.353.093,1.869.6,1.952" fill="#4a647d"/>
    <path id="パス_836" data-name="パス 836" d="M153.331,26.274,148.4,38.918l-.7,1.8a3.874,3.874,0,0,0,.3,2.733c.188.411.815,1.325,1.14.493L154.075,31.3q.35-.9.7-1.8a3.871,3.871,0,0,0-.3-2.732c-.188-.411-.815-1.325-1.14-.493" fill="#4a647d"/>
    <path id="パス_837" data-name="パス 837" d="M161.466,5.407q-2.436,6.251-4.873,12.5-.351.9-.7,1.8a3.871,3.871,0,0,0,.3,2.732c.188.411.815,1.325,1.14.493q2.436-6.25,4.873-12.5.349-.9.7-1.8a3.871,3.871,0,0,0-.3-2.732c-.188-.411-.815-1.325-1.14-.493" fill="#4a647d"/>
    <path id="パス_838" data-name="パス 838" d="M176.531,48.616l-4.773,5.31-.677.754a.683.683,0,0,0-.2.806,1.544,1.544,0,0,0,.916.63,3.527,3.527,0,0,0,1.541.113,2.1,2.1,0,0,0,1.2-.476l4.773-5.311.677-.753a.682.682,0,0,0,.205-.806,1.536,1.536,0,0,0-.916-.631,3.524,3.524,0,0,0-1.541-.112,2.1,2.1,0,0,0-1.2.476" fill="#4a647d"/>
    <path id="パス_839" data-name="パス 839" d="M197.358,25.55l-5.584,6.213-8.953,9.961-2.052,2.284c-1.262,1.4,2.563,2.059,3.449,1.073l5.584-6.213,8.953-9.962,2.052-2.283c1.262-1.4-2.563-2.059-3.449-1.073" fill="#4a647d"/>
    <path id="パス_840" data-name="パス 840" d="M214.748,60.611l-8.591,4.631-13.679,7.373L189.357,74.3c-.813.439-.032,1.23.482,1.484a3.188,3.188,0,0,0,2.759.089l8.591-4.631,13.679-7.374,3.121-1.682c.813-.438.032-1.229-.482-1.483a3.188,3.188,0,0,0-2.759-.089" fill="#4a647d"/>
    <path id="パス_841" data-name="パス 841" d="M226.337,54.107l-4.415,2.6-.624.369a.635.635,0,0,0-.326.736,1.533,1.533,0,0,0,.808.747,3.179,3.179,0,0,0,2.759.089l4.414-2.6.625-.369a.636.636,0,0,0,.326-.736,1.54,1.54,0,0,0-.808-.747,3.179,3.179,0,0,0-2.759-.089" fill="#4a647d"/>
    <path id="パス_842" data-name="パス 842" d="M235.1,94.509l-11.964,1.532L204.21,98.464l-4.375.56c-.385.05-1.46.255-.78.761a4.4,4.4,0,0,0,2.71.432l11.964-1.532,18.929-2.423,4.375-.56c.385-.05,1.461-.256.781-.761a4.4,4.4,0,0,0-2.711-.432" fill="#4a647d"/>
  </g>
</svg>
