<svg id="グループ_297" data-name="グループ 297" xmlns="http://www.w3.org/2000/svg" xmlns:xlink="http://www.w3.org/1999/xlink" width="419.764" height="226.229" viewBox="0 0 419.764 226.229">
  <defs>
    <clipPath id="clip-path">
      <rect id="長方形_82" data-name="長方形 82" width="419.764" height="226.229" fill="none"/>
    </clipPath>
  </defs>
  <g id="グループ_270" data-name="グループ 270" clip-path="url(#clip-path)">
    <path id="パス_455" data-name="パス 455" d="M285.339,178.493c-.925-2.311-3.352-5.2-4.275-7.166-.81-1.965-.81-3.352-1.157-5.779-.462-2.542-3-4.854-4.161-6.819-1.039-1.965-1.039-4.161-2.2-6.473s-3.7-7.859-3.93-8.321c-.231-.347-3.35-1.156-5.086-1.156-.693,0-1.154-.809-1.154-1.619a3.192,3.192,0,0,1,1.733-3.005,5.819,5.819,0,0,1,1.388-.231c1.848,0,4.16.694,7.28.809,2.544,0,2.428-.578,4.507-.809,2.544,0,3.7.347,5.2.347,1.04,0,1.848,1.5,1.848,2.657a1.347,1.347,0,0,1-.231.81c-.114.114-.346.231-.346.462,0,.924.924,2.542,1.965,4.623a54.752,54.752,0,0,0,4.507,8.438c1.734,2.657,1.848,3.12,2.311,5.432a5.068,5.068,0,0,0,3.236,3.813c.694,0,.809-1.04,1.735-3.005a36.441,36.441,0,0,0,2.889-7.281,28.44,28.44,0,0,1,1.85-5.316,29.128,29.128,0,0,0,1.848-6.82c0-.694-2.079-.463-2.427-.809-.232-.115-.232-.231-.232-.462a4.96,4.96,0,0,1,1.157-2.774c.925-.694,4.161-.462,5.2-.694a2.9,2.9,0,0,1,1.156-.115,31.776,31.776,0,0,1,3.467.347c1.157.231,3.467.114,3.467,1.156a2.366,2.366,0,0,1-1.733,2.427c-1.271.348-2.428-.115-3.7.925-1.386,1.156-.925,2.2-2.427,5.894s-2.774,3.93-3.813,6.589c-1.04,2.773-1.157,4.507-2.2,7.4-.926,2.773-2.891,5.9-3.468,7.628-.694,1.734-1.387,6.589-2.313,8.554a23.1,23.1,0,0,0-1.848,3.929,27.147,27.147,0,0,1,.232,2.774c-.232,1.385-.579,2.773-1.272,5.547-1.156,4.161-1.039,6.125-3.005,9.014a36.447,36.447,0,0,0-3.467,6.358,19.056,19.056,0,0,1-2.889,5.316c-1.85,2.659-3.93,2.543-5.317,3.93-1.5,1.388-5.086,1.734-8.553,1.734-3.352,0-7.975-1.85-8.9-4.507-.808-2.2-2.31-3.814-2.31-6.358s2.889-5.315,5.432-5.315c.694,0,3,.694,3.35,1.271a7.175,7.175,0,0,1,1.619,4.044c0,1.271-1.156,2.312-1.156,3.7,0,1.271,1.85,3.006,3.236,3.006,3.468,0,6.357-1.965,8.553-4.393.694-.694,1.5-.809,2.081-1.5a24.22,24.22,0,0,0,.924-2.659,34.6,34.6,0,0,0,2.427-4.738c.578-2.428,1.388-6.473,1.851-9.132.114-.693-.579-4.969-.463-5.893-.809-1.965-1.619-3.469-2.428-5.779" transform="translate(17.955 9.48)" fill="#505050"/>
    <path id="パス_456" data-name="パス 456" d="M54.666,57.324c0-3.352.115-8.321.115-11.789-.23-1.5-1.039-1.965-2.773-1.965a2.62,2.62,0,0,1-1.965-1.964c-.115-3.352,1.156-4.045,1.5-4.045l2.2-.115c1.5-.463,1.156-2.774,1.616-4.161a1.7,1.7,0,0,0,.117-.809c0-1.618-.694-3.929-.694-6.009,0-1.85.463-5.086.463-7.743,0-1.271-.346-2.427-.346-3.814,0-2.2.461-4.507.461-7.05-.114-.809-2.541-1.5-3.582-1.733-.693-.232-.924-1.157-.924-1.965a3.818,3.818,0,0,1,.578-2.2,1.233,1.233,0,0,1,1.27-.578c1.734,0,2.2-.115,3.7-.115,1.618,0,2.427.346,5.085.346,1.851,0,4.045-.231,6.126-.231a10.537,10.537,0,0,1,3.814.578c2.426.693,3.813.346,3.813,1.618a2.84,2.84,0,0,1-1.965,2.774c-1.039.346-2.2,1.5-2.542,3.813a52.323,52.323,0,0,0-.578,8.668c.115,6.819.578,7.282.578,10.518,0,1.733-.115,3.466-.115,4.969a4.94,4.94,0,0,0,.462,2.658c.232.463.577.578,1.157.578a14.057,14.057,0,0,0,3.928-.694,5.006,5.006,0,0,0,.579-.115c.23,0,.462-.115.693-.115a13.7,13.7,0,0,1,3.005-.231,44.493,44.493,0,0,1,5.778.577,8.115,8.115,0,0,0,1.733.117c2.543,0,5.087-.463,8.09-.694,1.619,0,3.005.577,4.508.577.693-.346.578-1.965.808-4.392a8.671,8.671,0,0,0,.117-1.733c0-1.85-.346-3.7-.346-6.241,0-2.08-.347-3.121-.347-4.738a14.924,14.924,0,0,1,.347-2.89c.114-1.156.114-2.311.114-3.582,0-2.427-.114-4.854-.114-6.126,0-2.08-3.005-.231-3.353-3.7a2.257,2.257,0,0,1-.115-.808c0-2.2,2.311-1.85,4.97-2.312A15.623,15.623,0,0,1,105.866,0c1.734,0,3.468.346,8.205.346,2.543,0,3.93.232,4.392,1.156a1.967,1.967,0,0,1,.577,1.272,2.7,2.7,0,0,1-.808,1.5c-.924,1.387-2.542.577-3,2.08a8.807,8.807,0,0,0-.579,3.813c0,1.156.117,2.427.117,3.582.115,2.427.231,5.664.231,8.206,0,4.275.694,6.009,1.156,10.286.115,1.619.231,2.542.231,3.467,0,1.85-.231,3.121-.231,7.282a70.654,70.654,0,0,0,.694,12.019c.578,4.394.578,14.564.578,15.951,0,.925,2.2,2.2,3.467,2.2,1.5.231,2.079.808,2.079,2.541,0,1.157-.577,1.388-1.5,1.388-.462,0-1.156-.115-1.734-.115-1.5,0-4.738.346-7.511.578-3.121,0-5.664-.117-7.975-.117-1.039,0-2.2,0-3.582.117-1.387,0-1.848-.578-1.848-1.271s.23-1.157.23-1.619c0-1.271,1.388-2.2,2.2-3.353.579-1.155.463-3.235.809-6.587,0-3.352-.114-10.979-.346-12.829s-.463-8.322-1.156-8.784c-.809-.231-2.89-2.08-5.315-2.08a7.966,7.966,0,0,0-1.5.231,7.934,7.934,0,0,1-2.774.347c-1.5,0-2.773-.232-4.044-.232-.463,0-.809.117-1.157.117-2.773.346-5.315.115-7.974.462-2.427.231-4.623-.115-5.894,1.04a3.1,3.1,0,0,0-.809,2.542c0,6.588.232,7.859.232,10.4,0,5.432-.232,7.512-.232,10.17,0,2.89-.925,9.939-3.121,18.145-.462,1.964-.346,2.659-1.5,4.738S65.3,93.5,64.375,95.116c-.346.579-1.387,2.428-2.773,4.507a48.517,48.517,0,0,1,7.974,4.739c5.2,3.93,12.135,7.512,12.712,7.512.925,0,3.005,1.848,5.778,2.89a33.312,33.312,0,0,0,11.211,2.658c3.352.115,7.28,1.04,10.863.231,3.7-.809,7.283-1.964,9.131-4.392,2.428-3.236,4.16-6.241,4.16-10.054,0-4.508-.924-5.895-1.964-6.589s-3.93-3.352-5.432-3.467-5.778-.694-6.588.231-3.005,4.97-5.432,4.97-3.582-1.271-3.582-3.7,3.467-5.546,8.205-5.546,10.056,1.039,12.829,3.235,4.16,3.468,4.623,4.507c1.965,4.739,1.5,4.276,1.733,7.512s-3.467,10.747-5.894,13.06-6.7,5.432-8.784,5.894-5.431,1.619-7.28,1.619a76.254,76.254,0,0,1-10.632-.694c-3.814-.462-4.507-1.387-8.437-2.08-.925-.115-3.584-2.542-6.357-3.466-1.618-.579-4.045-2.312-6.126-3.468s-6.471-3.352-7.86-4.276c-.693-.577-4.969-3.467-8.667-5.894a17.964,17.964,0,0,1-2.658,3c-3.468,2.89-6.819,5.433-7.744,5.433s-1.732,1.964-3,2.658-8.9,4.045-10.864,4.16-4.507.579-9.476.579c-8.206,0-13.291-1.734-14.794-2.89s-4.161-1.966-5.432-3.584S0,108.754,0,101.936c0-5.663,5.433-11.789,9.708-14.1a24.579,24.579,0,0,1,12.714-3.12c6.588,0,10.633,1.039,11.789,1.964A10.607,10.607,0,0,0,39.872,88.3c1.157-.232,2.891.924,4.971,1.848,2.426,1.04,5.546,2.2,7.742,3.814,1.271-4.161,2.543-11.789,2.543-29.125,0-1.5-.347-3.121-.463-7.512m-4.854,42.993a9.438,9.438,0,0,1-2.428-2.31c-.925-1.5-3.582-2.428-5.894-3.121s-2.773-2.428-6.125-3.468-5.895-2.2-10.4-2.658-6.01-.462-8.669,0-2.542-.346-5.431,1.85-5.432,3.929-6.126,5.663S3.005,99.509,3.005,102.4c0,1.271-.346,3.7.809,5.2s2.773,2.427,3.005,3.813A5.71,5.71,0,0,0,10.171,115c1.387.462,8.436,3.12,11.557,3.005s2.542.462,7.282-.695,8.437-3.582,11.095-4.737,2.311-2.774,3.236-2.543,2.658-3.12,3.814-4.276c.694-.693,1.733-3.121,2.658-5.432" fill="#505050"/>
    <path id="パス_457" data-name="パス 457" d="M173.725,70.5c.809,0,3.005-1.04,3.35-2.542.232-1.618.579-2.311,2.311-2.311,1.157,0,1.851.577,1.851,1.964a5.526,5.526,0,0,1-2.2,4.508,39.326,39.326,0,0,1-3.468,2.657c-1.5,1.041-4.161,1.157-6.472,1.157-2.889,0-4.854-1.965-6.009-1.965-1.848-1.039-2.774-3.467-3.467-4.392-.232-.231-1.271-3.7-1.5-3.7-1.387,0-2.773,3.353-3.813,4.392-1.156,1.271-3.352,3.235-5.2,3.235-2.2,0-2.658,1.619-6.7,1.85a25.49,25.49,0,0,1-7.627-.808c-.117,0-.347-.115-.463-.115-.231,0-.346-.115-.578-.115-2.773-.81-5.546-1.618-7.28-3.7-1.734-1.965-1.619-2.659-2.428-5.087-.693-2.542-2.2-4.507-3.351-7.051a9.938,9.938,0,0,1-.463-3.235c0-1.965.347-4.507.463-7.051.346-4.276,3.12-7.28,4.275-9.939,1.04-2.542,1.388-2.2,2.542-3.12a25.57,25.57,0,0,0,4.855-4.623c.809-1.041,3.352-1.5,4.624-1.5a25.812,25.812,0,0,1,6.009-1.965,6.16,6.16,0,0,1,2.427-.347c2.079,0,3.467.693,5.547,1.039,2.89.463,6.24,5.55,6.125,5.432,0-2.541,2.543-4.854,4.739-5.085a19.531,19.531,0,0,1,4.045-.463,7.638,7.638,0,0,1,1.617.115,5.144,5.144,0,0,0,1.272.117c1.039,0,1.039-.463,3-.694a5.358,5.358,0,0,1,1.156-.114c1.387,0,1.5.808,2.2,1.965a3.009,3.009,0,0,1,.347,1.27,1.069,1.069,0,0,1-1.041,1.156c-1.04,0-3.467.809-3.93,2.079a10.2,10.2,0,0,0-.577,3.237,11.9,11.9,0,0,1,.115,2.08c0,2.889-.231,6.009-.231,11.211.115,1.5.115,2.657.115,3.813,0,2.2-.115,3.813-.115,9.361,0,4.855,1.85,7.281,3.93,7.281M153.962,35.716c-1.04-1.156-2.659-3-4.392-3a9.208,9.208,0,0,0-3.236-.81,3.466,3.466,0,0,0-2.08.694c-1.271,1.04-1.157.347-4.276,3.006-2.08,1.732-1.85,3.7-2.659,6.357a25.915,25.915,0,0,0-1.618,9.476,84.3,84.3,0,0,0,.346,9.129,9.474,9.474,0,0,0,3.237,6.474l.462.461a5.061,5.061,0,0,0,3.467,1.5c2.773,0,3.583-.693,5.663-2.543,2.427-2.078,3.584-1.387,3.584-3.12s2.889-3.583,3.466-5.778a9.463,9.463,0,0,0,.232-2.659c0-2.08-.232-4.623-.463-7.858a14.019,14.019,0,0,1-.115-2.2c0-3.466.578-5.777.578-6.934a.5.5,0,0,0-.115-.345c-.347-.118-.809-.463-2.08-1.851" transform="translate(8.304 1.845)" fill="#505050"/>
    <path id="パス_458" data-name="パス 458" d="M182.794,89.414c0-3.005-.463-4.392-.463-7.166v-.809c.115-2.658.463-4.044.463-6.588,0-.577-.115-1.387-.115-2.08-.232-3.352-.347-4.16-.347-6.126V62.253c0-2.541,0-4.853-.115-6.356s-.117-3.7-.117-6.357V43.53a50.606,50.606,0,0,0-.345-7.165c-.232-1.619-.694-3.7-1.387-3.7-.694.231-1.734,1.5-2.89,1.5-.693-.115-1.157-1.5-1.157-2.659,0-.231.117-.462.117-.693.231-1.156,0-2.2,2.2-2.311H185.1a28.594,28.594,0,0,0,6.82-.578,7.955,7.955,0,0,1,1.5-.231c1.157,0,2.2.346,2.311,1.387,0,1.04-.808,2.89-.925,3.7a13.393,13.393,0,0,0-.115,2.428v4.275a8.359,8.359,0,0,0,.232,2.428c.346-.346,3.352-5.547,4.969-7.282s5.316-4.738,6.934-5.317c.347,0,.578-.231.926-.231,1.848-.577,5.085-1.733,6.933-1.733a2.575,2.575,0,0,1,1.041.115c1.964.577,6.934,2.658,8.782,4.623s5.2,6.588,5.663,10.749a27.875,27.875,0,0,1,.232,4.391,36.421,36.421,0,0,1-.346,5.547,48.474,48.474,0,0,1-3.121,10.287c-.694,1.271-.115,2.312-1.387,3.467-1.734,1.5-1.157,1.619-2.311,3.121-1.041,1.5-3.237,2.543-4.392,3.467-1.272.809-2.66.809-3.814,1.85a8.67,8.67,0,0,1-4.507,1.387,7.127,7.127,0,0,1-1.5-.115,14.1,14.1,0,0,0-4.275-.577,26.325,26.325,0,0,0-2.774.115c-2.659,0-5.548-2.889-6.7-2.889-.115,0-.231.115-.231.345,0,.809.577,3.121.693,5.2,0,2.08.232,3.7.232,5.549a23.91,23.91,0,0,1-.463,4.623,3.43,3.43,0,0,0-.231,1.619,40.869,40.869,0,0,0,.694,5.431c.462,2.659.346,3.93,1.619,5.432.577.694,1.616,1.156,1.616,2.542-.114,1.388-.114,1.619-1.964,2.082-.232,0-.347.114-.462.114a5.868,5.868,0,0,1-2.311.463,12,12,0,0,1-1.85-.115c-2.2-.347-1.271-.809-4.392-.809-3.35.115-4.969.462-5.778.462a11.067,11.067,0,0,0-3.236-.577,1.792,1.792,0,0,1-1.965-1.848.859.859,0,0,1,.117-.578c.462-1.04,3.121-1.618,3.813-1.618s.809-.579,1.04-6.01c.115-3.121.578-1.04.578-5.778M195.16,58.555c0,2.89,1.387,6.241,1.733,8.206.463,2.2,1.849,3.121,4.045,4.275,2.08,1.041,2.658.577,4.624,1.272a4.4,4.4,0,0,0,1.964.462,5.707,5.707,0,0,0,3.583-1.157c1.04-.807,1.734-2.31,2.428-4.853a29.977,29.977,0,0,0,1.155-7.282c.232-2.659.232-6.241.347-11.442a23.44,23.44,0,0,0-.809-5.894c-.577-2.427-4.16-6.934-7.512-7.05-.23,0-.462-.231-.809-.231-.577,0-1.271.693-2.426,1.618l-.347.346c-1.734,1.619-2.2,3.352-4.044,5.779a19.324,19.324,0,0,0-3.005,6.934,87.659,87.659,0,0,0-.925,9.014" transform="translate(12.18 1.889)" fill="#505050"/>
    <path id="パス_459" data-name="パス 459" d="M238.252,89.414c0-3.005-.463-4.392-.463-7.166v-.809c.116-2.658.463-4.044.463-6.588,0-.577-.115-1.387-.115-2.08-.232-3.352-.348-4.16-.348-6.126V62.253c0-2.541,0-4.853-.115-6.356s-.116-3.7-.116-6.357V43.53a50.61,50.61,0,0,0-.345-7.165c-.232-1.619-.694-3.7-1.387-3.7-.694.231-1.734,1.5-2.89,1.5-.693-.115-1.157-1.5-1.157-2.659,0-.231.116-.462.116-.693.231-1.156,0-2.2,2.2-2.311h6.471a28.593,28.593,0,0,0,6.82-.578,7.957,7.957,0,0,1,1.5-.231c1.157,0,2.2.346,2.311,1.387,0,1.04-.809,2.89-.925,3.7a13.409,13.409,0,0,0-.115,2.428v4.275a8.413,8.413,0,0,0,.231,2.428c.347-.346,3.353-5.547,4.97-7.282s5.317-4.738,6.934-5.317c.348,0,.578-.231.926-.231,1.848-.577,5.085-1.733,6.933-1.733a2.565,2.565,0,0,1,1.04.115c1.965.577,6.935,2.658,8.784,4.623s5.2,6.588,5.663,10.749a27.862,27.862,0,0,1,.232,4.391,36.407,36.407,0,0,1-.346,5.547A48.464,48.464,0,0,1,282.4,63.063c-.694,1.271-.115,2.312-1.387,3.467-1.734,1.5-1.157,1.619-2.311,3.121-1.041,1.5-3.237,2.543-4.393,3.467-1.271.809-2.659.809-3.813,1.85a8.667,8.667,0,0,1-4.507,1.387,7.127,7.127,0,0,1-1.5-.115,14.1,14.1,0,0,0-4.275-.577,26.326,26.326,0,0,0-2.774.115c-2.659,0-5.547-2.889-6.7-2.889-.116,0-.231.115-.231.345,0,.809.577,3.121.693,5.2,0,2.08.232,3.7.232,5.549a24,24,0,0,1-.463,4.623,3.429,3.429,0,0,0-.231,1.619,40.9,40.9,0,0,0,.694,5.431c.462,2.659.346,3.93,1.619,5.432.577.694,1.616,1.156,1.616,2.542-.114,1.388-.114,1.619-1.964,2.082-.232,0-.347.114-.462.114a5.874,5.874,0,0,1-2.312.463,11.993,11.993,0,0,1-1.85-.115c-2.2-.347-1.271-.809-4.392-.809-3.35.115-4.969.462-5.778.462a11.067,11.067,0,0,0-3.236-.577A1.792,1.792,0,0,1,232.7,103.4a.859.859,0,0,1,.116-.578c.462-1.04,3.121-1.618,3.813-1.618s.809-.579,1.04-6.01c.115-3.121.578-1.04.578-5.778m12.366-30.859c0,2.89,1.387,6.241,1.733,8.206.463,2.2,1.85,3.121,4.045,4.275,2.081,1.041,2.658.577,4.623,1.272a4.41,4.41,0,0,0,1.965.462,5.706,5.706,0,0,0,3.582-1.157c1.04-.807,1.734-2.31,2.428-4.853a29.977,29.977,0,0,0,1.155-7.282c.232-2.659.232-6.241.347-11.442a23.446,23.446,0,0,0-.809-5.894c-.577-2.427-4.16-6.934-7.512-7.05-.23,0-.462-.231-.809-.231-.577,0-1.271.693-2.426,1.618l-.347.346c-1.734,1.619-2.2,3.352-4.044,5.779a19.323,19.323,0,0,0-3.005,6.934,87.652,87.652,0,0,0-.925,9.014" transform="translate(16.011 1.889)" fill="#505050"/>
    <path id="パス_460" data-name="パス 460" d="M326.832,73.625c0-2.773.348-7.4.348-9.246,0-1.964-.693-5.085-1.04-5.085-.116,0-.116.115-.232.463-.346,1.848-2.079,4.16-3.235,6.472-1.04,2.311-2.2,2.541-4.162,4.853A13.233,13.233,0,0,1,312.5,74.9a6.732,6.732,0,0,1-2.2.232c-.924,0-2.08,0-3.7-.115-3-.117-5.778-1.735-8.321-2.658-2.428-.809-4.162-4.393-4.624-5.664-.577-1.156-.693-3.93-.925-5.663-.116-1.271-.345-4.392-.345-7.051a21.636,21.636,0,0,1,.114-2.89c0-.577.116-1.156.116-1.848,0-1.849-.23-3.814-.23-5.895V39.531c0-2.89-.116-6.126-.232-6.934-.232-1.157-1.271-1.157-2.773-1.157-.809,0-1.157-.808-1.157-1.733a6.688,6.688,0,0,1,.232-1.5c.115-.578,1.04-.694,2.2-.694.925,0,1.618.115,2.311.115a23.172,23.172,0,0,0,6.126-.694,6.062,6.062,0,0,1,2.079-.231,24.131,24.131,0,0,1,4.738.577c.694.232.925.926.925,1.735,0,1.387-1.039,1.964-1.039,3.582,0,.808.114,1.965.114,3.352v1.733a16.468,16.468,0,0,0-.114,2.311c0,2.311.23,4.507.23,6.82v1.964a18.782,18.782,0,0,0-.116,2.428c0,2.427.232,4.392.232,6.357,0,4.16,1.27,5.894,1.618,8.436.346,3.005,2.2,2.428,3.237,3.467a1.862,1.862,0,0,0,1.039.347c.693,0,1.619-.347,3.353-1.387,3-1.734,2.773-1.966,4.16-4.162a50.509,50.509,0,0,0,3.7-6.818c.809-1.966,2.2-6.241,3.121-8.437a6.485,6.485,0,0,0,.694-3.352c0-1.157-.116-2.543-.116-4.277a25.676,25.676,0,0,0-.694-7.05,19.48,19.48,0,0,1-.462-4.855c.114-1.618,1.618-1.27,3.235-1.5s4.045,0,6.358-.347c2.426-.347,3.929-.231,6.008-.694a9.091,9.091,0,0,1,1.85-.231,3.612,3.612,0,0,1,2.658.809.691.691,0,0,1,.116.463c0,.808-.809,1.618-1.848,2.542-1.157.924-1.851.577-3.121,1.04a1.193,1.193,0,0,0-.809,1.271c0,.925.231,1.965.347,3.582,0,3.236-.232,5.432-.232,8.09.115,3.814.115,6.472.115,8.322,0,6.935.809,10.979.809,15.371a32.5,32.5,0,0,1-.809,7.744,35.323,35.323,0,0,1-.231,4.16c-.232.925.231,3.236.231,6.357,0,3.236-.578,7.4-1.156,8.436-1.04,1.966-.926,4.971-2.2,6.241-.578.809-1.849,3.005-1.849,4.276a.9.9,0,0,0,.346.809,39.261,39.261,0,0,1,6.82,4.045c5.2,3.929,12.135,7.511,12.712,7.511.925,0,3.005,1.85,5.779,2.89.116,0,.232.115.347.115a32.685,32.685,0,0,0,10.864,2.543c2.311.115,5.084.577,7.628.577a14.619,14.619,0,0,0,3.235-.346c3.7-.809,7.281-1.965,9.131-4.393,2.427-3.235,4.16-6.24,4.16-10.055,0-4.507-.925-5.894-1.964-6.587s-3.93-3.353-5.432-3.467a37.068,37.068,0,0,0-4.161-.232,4.046,4.046,0,0,0-2.427.462c-.809.925-3.005,4.971-5.433,4.971s-3.583-1.272-3.583-3.7,3.468-5.547,8.206-5.547,10.056,1.04,12.829,3.236,4.16,3.467,4.623,4.507c1.965,4.738,1.965,4.969,1.965,8.553,0,5.317-3.815,9.824-6.126,12.02-2.426,2.311-6.7,5.431-8.783,5.894s-5.432,1.619-7.28,1.619a76.266,76.266,0,0,1-10.633-.694c-3.814-.463-4.508-1.388-8.436-2.081-.926-.114-3.584-2.541-6.358-3.466-1.618-.578-4.044-2.312-6.125-3.467s-6.472-3.353-7.859-4.276c-.694-.578-4.97-3.468-8.668-5.894a18,18,0,0,1-2.658,3c-3.468,2.891-6.819,5.433-7.744,5.433s-1.734,1.964-3,2.659-8.9,4.044-10.864,4.16a94.935,94.935,0,0,1-9.476.577c-8.206,0-13.291-1.732-14.794-2.889s-4.161-1.964-5.432-3.583-3.814-5.663-3.814-12.481c0-5.664,5.433-11.789,9.708-14.1a24.58,24.58,0,0,1,12.714-3.121c6.588,0,10.632,1.04,11.789,1.964a12,12,0,0,0,6.009,1.619c1.156,0,2.774,1.04,4.623,1.85,2.427,1.039,5.547,2.2,7.743,3.814.925-5.549,1.041-4.855,1.387-10.171.116-1.388.116-4.276.116-7.05,0-2.2.116-4.392.116-5.549,0-.462-.232-2.658-.232-3.467m-4.16,32.592a9.4,9.4,0,0,1-2.428-2.311c-.925-1.5-3.583-2.428-5.894-3.121s-2.773-2.427-6.126-3.467-5.894-2.2-10.4-2.658a48.622,48.622,0,0,0-4.969-.347,20.927,20.927,0,0,0-3.7.347c-2.658.462-2.543-.347-5.432,1.848s-5.431,3.93-6.125,5.663-1.734,3.236-1.734,6.126c0,3.005.115,4.275.809,5.2,1.156,1.5,2.773,2.427,3.005,3.813a5.71,5.71,0,0,0,3.35,3.583c1.387.462,8.091,3.005,11.558,3.005a25.824,25.824,0,0,0,7.281-.694c4.738-1.155,8.436-3.583,11.095-4.738,2.89-1.271,2.08-2.542,3.352-2.542.925,0,2.542-3.121,3.7-4.276.693-.693,1.734-3.121,2.659-5.432" transform="translate(18.849 1.845)" fill="#505050"/>
    <path id="パス_461" data-name="パス 461" d="M317.8,142.154c0-1.387,0-2.659,1.386-3.468,1.157-.577,1.966-1.618,2.891-3.929a13.992,13.992,0,0,0,.345-2.659c0-1.271-.461-2.2-1.618-3.929a5.438,5.438,0,0,1-.924-3.468v-1.387c.23-2.079,2.08-3.813,2.889-5.317.462-.577,1.618-.809,3.005-.809a19.105,19.105,0,0,1,4.276.464c1.618.345,3.582,3.929,3.582,5.662.116,1.157.462,2.89.462,4.276a3.309,3.309,0,0,1-.462,1.965c-.347,1.619-.925,2.427-2.08,4.392-.693,1.04-2.08,2.08-2.659,3.929-.577.809-1.271,2.543-2.311,2.659-1.271.232-2.31,2.2-3.235,2.428a6.24,6.24,0,0,1-3.121,1.387c-2.081-.115-2.428-1.041-2.428-2.2" transform="translate(21.953 8.095)" fill="#505050"/>
    <path id="パス_462" data-name="パス 462" d="M350.367,180.692c1.85,0,2.543-1.5,3.236-2.889a4.2,4.2,0,0,0,.232-1.618c0-4.393-2.2-7.628-7.86-9.824-2.426-.926-2.312-2.428-3.929-2.659-1.734-.231-6.357-2.542-7.975-5.2a14.524,14.524,0,0,1-2.31-7.4c.114-2.2,0-3.929,1.733-5.894,1.734-1.848,3.005-4.044,5.778-5.431a66.324,66.324,0,0,1,6.357-2.543,20.6,20.6,0,0,1,6.125-.925,17.661,17.661,0,0,1,3.468.346,62.533,62.533,0,0,0,6.7.926c1.387.115,1.965-.926,3.467-.232s1.156,2.2.694,4.624a29.138,29.138,0,0,0-.694,5.431c-.116,2.427-.116,3.468-.694,4.623s-3.93,1.157-4.275-.577-2.08-3.352-3.121-5.546-1.965-4.046-3.121-4.046-2.312-1.155-3.7-1.155a1.8,1.8,0,0,0-1.271.345c-1.387,1.156-1.618,1.965-1.618,4.739,0,2.89.925,3.929,2.312,5.086,1.04,1.039,3.35,2.2,6.7,3.813,2.89,1.387,4.507,1.733,6.01,3.929,1.5,2.081,3.813,5.664,3.813,8.9-.231,3.005,0,5.2-1.156,7.975-.925,2.2-1.5,2.542-3.236,4.506-1.5,1.851-1.618,2.66-3.813,3.93-2.311,1.388-4.392,1.734-8.554,1.965s-10.054-2.658-12.134-2.658c-1.85,0-5.2,1.734-6.126.809s-.462-6.126-.462-8.438-.578-5.662-.578-7.627.693-3.93,2.311-3.7,2.311.462,3.353,2.89,4.737,6.356,6.588,8.09,2.311,2.773,3.235,3.121c.578.23,1.388,2.31,4.507,2.31" transform="translate(22.822 9.416)" fill="#505050"/>
    <path id="パス_463" data-name="パス 463" d="M197.027,125.308c1.5,2.659,4.506,6.935,5.663,10.633a42.565,42.565,0,0,1,1.848,10.747,76.839,76.839,0,0,1-2.31,17.915c-1.389,4.392-5.9,11.326-7.86,13.175-2.08,1.85-4.854,3-7.165,5.316s-7.628,3.468-10.75,4.045a61.607,61.607,0,0,1-9.361.462c-2.427,0-6.471.693-9.476.693-2.2.117-5.778.694-8.554.694a8.315,8.315,0,0,1-2.541-.23c-2.773-.809-5.086-.464-7.629-.694a2.513,2.513,0,0,1-2.427-2.543,4.464,4.464,0,0,1,.694-2.311,1.822,1.822,0,0,1,1.5-.809c.694,0,1.272.347,2.543.463,1.04,0,1.5-.694,1.619-3.005,0-1.618-.117-4.391-.117-7.051a37.521,37.521,0,0,1,.347-5.778,12.751,12.751,0,0,0,.23-2.889c0-1.5-.115-3.005-.115-4.969,0-4.971-.345-7.512-.345-9.94a10.451,10.451,0,0,1,.345-2.889,10.085,10.085,0,0,0,.347-2.774c0-2.079-.347-4.623-.347-6.934,0-7.743.347-7.512.232-9.708,0-2.774.231-5.895,1.155-6.934a5.659,5.659,0,0,1,3.584-2.081,43.177,43.177,0,0,1,5.2-.693,3.9,3.9,0,0,1,3.813,4.507c-.231,1.387-.231-2.89-.231,5.778l.346,7.282a39.774,39.774,0,0,1-.115,4.045,26.56,26.56,0,0,0,.231,4.16c0,.695.117,1.734.117,2.774,0,3.235-.232,7.627-.232,11.326,0,3.352-.23,5.432-.23,7.628,0,1.041.114,1.965.23,3.467a53.807,53.807,0,0,1,.809,8.9c0,1.388-.231,2.543-.231,3.7a3.8,3.8,0,0,0,.808,2.775,4.491,4.491,0,0,0,2.543.462,40.32,40.32,0,0,0,5.085-.347c.347,0,.694-.114,1.041-.114a48.322,48.322,0,0,0,9.592-2.428c2.89-.809,4.393-2.543,6.357-5.662,2.08-3.237,5.547-10.865,5.894-14.1,0-.579.117-1.5.117-2.659,0-5.663-.463-16.413-1.041-19.417-.693-3.929-4.738-10.4-7.28-13.869-2.658-3.583-4.392-7.512-7.627-8.667-1.5-.694-6.242-4.507-8.554-4.507-2.658-.926-3.93-.926-8.668-1.156a52.062,52.062,0,0,0-11.326.693c-2.773.463-5.895.463-8.322,1.617s-5.315,2.2-8.668,3.814-4.969,2.542-6.587,4.276a62.587,62.587,0,0,0-5.895,7.281c-.925,1.616-2.427,4.969-4.045,7.512s0,5.431-.924,7.28.924,5.431,1.156,7.166,1.156,5.085,2.427,6.356a18.7,18.7,0,0,0,4.854,3.236c1.85.925,6.126.232,6.588.232a11.469,11.469,0,0,0,3.814-1.849c.693-.694,1.04-1.733,1.85-2.312a7.893,7.893,0,0,0,2.658-4.969,6.047,6.047,0,0,0-1.619-5.663c-2.08-2.311-5.894-1.617-5.894-1.617a4.808,4.808,0,0,1,1.156,2.889,3.591,3.591,0,0,1-3.352,3.237A3.9,3.9,0,0,1,120.056,146c0-3.236,3.352-5.2,6.125-5.2s3.352.347,6.241,1.272,4.854,4.16,4.854,9.014c0,3.467-1.5,4.276-1.733,5.895-.232,1.964-2.774,3.12-3.93,4.275s-4.739,2.428-9.476,2.428-6.588-.232-9.708-2.2a17.989,17.989,0,0,1-8.206-11.209c-.577-2.89-1.85-5.433-1.155-6.935s.693-5.549,1.616-8.553,3.353-6.472,5.895-9.824a31.6,31.6,0,0,1,8.437-7.28c2.542-1.619,5.662-3.814,7.858-4.277a10.735,10.735,0,0,0,4.277-1.848c2.89-2.2,5.547-1.156,12.943-2.89s13.638-1.387,20.457-.693,10.979,1.5,18.145,5.317c4.623,2.426,12.6,9.476,14.331,12.019" transform="translate(7.106 7.42)" fill="#505050"/>
    <path id="パス_464" data-name="パス 464" d="M259.048,181.034c.808,0,3-1.04,3.35-2.542.232-1.619.578-2.311,2.311-2.311,1.157,0,1.851.577,1.851,1.964a5.524,5.524,0,0,1-2.2,4.507,39.087,39.087,0,0,1-3.468,2.658c-1.5,1.041-4.161,1.157-6.472,1.157-2.889,0-4.854-1.964-6.01-1.964-1.848-1.041-2.773-3.468-3.466-4.394-.232-.23-1.271-3.7-1.5-3.7-1.387,0-2.773,3.352-3.813,4.392-1.156,1.271-3.352,3.235-5.2,3.235-2.2,0-2.658,1.619-6.7,1.851a25.51,25.51,0,0,1-7.627-.809c-.117,0-.347-.117-.464-.117-.23,0-.345-.115-.577-.115-2.773-.809-5.546-1.618-7.28-3.7-1.734-1.964-1.619-2.658-2.428-5.086-.693-2.542-2.2-4.507-3.35-7.048a9.963,9.963,0,0,1-.463-3.237c0-1.964.346-4.507.463-7.051.345-4.275,3.12-7.28,4.275-9.938,1.04-2.543,1.387-2.2,2.542-3.121a25.54,25.54,0,0,0,4.855-4.624c.809-1.039,3.352-1.5,4.624-1.5a25.948,25.948,0,0,1,6.009-1.965,6.177,6.177,0,0,1,2.427-.346c2.079,0,3.467.694,5.547,1.04,2.89.462,6.24,5.549,6.125,5.432,0-2.543,2.543-4.855,4.739-5.085a19.468,19.468,0,0,1,4.045-.463,7.623,7.623,0,0,1,1.616.115,5.2,5.2,0,0,0,1.272.115c1.04,0,1.04-.462,3.005-.693a5.258,5.258,0,0,1,1.156-.117c1.387,0,1.5.809,2.2,1.965a3.021,3.021,0,0,1,.347,1.272,1.068,1.068,0,0,1-1.041,1.155c-1.04,0-3.467.809-3.93,2.08a10.2,10.2,0,0,0-.577,3.236,11.9,11.9,0,0,1,.115,2.08c0,2.89-.231,6.01-.231,11.21.116,1.5.116,2.658.116,3.814,0,2.2-.116,3.814-.116,9.361,0,4.855,1.85,7.281,3.93,7.281m-19.763-34.788c-1.04-1.156-2.659-3.005-4.392-3.005a9.232,9.232,0,0,0-3.236-.809,3.466,3.466,0,0,0-2.08.694c-1.271,1.04-1.157.347-4.276,3.005-2.08,1.734-1.849,3.7-2.659,6.357a25.925,25.925,0,0,0-1.617,9.476,84.389,84.389,0,0,0,.346,9.131,9.469,9.469,0,0,0,3.237,6.472l.462.462a5.061,5.061,0,0,0,3.467,1.5c2.773,0,3.582-.693,5.663-2.541,2.427-2.081,3.583-1.388,3.583-3.122s2.889-3.582,3.466-5.778a9.465,9.465,0,0,0,.232-2.659c0-2.079-.232-4.622-.463-7.858a13.881,13.881,0,0,1-.117-2.2c0-3.467.579-5.778.579-6.935a.509.509,0,0,0-.116-.346c-.347-.115-.809-.463-2.08-1.85" transform="translate(14.199 9.48)" fill="#505050"/>
  </g>
</svg>
