<svg xmlns="http://www.w3.org/2000/svg" xmlns:xlink="http://www.w3.org/1999/xlink" width="302.881" height="292.162" viewBox="0 0 302.881 292.162">
  <defs>
    <clipPath id="clip-path">
      <rect id="長方形_82" data-name="長方形 82" width="302.881" height="163.236" fill="none"/>
    </clipPath>
    <clipPath id="clip-path-2">
      <rect id="長方形_118" data-name="長方形 118" width="214.625" height="128.926" fill="none"/>
    </clipPath>
  </defs>
  <g id="グループ_307" data-name="グループ 307" transform="translate(-1086.56 -319.425)">
    <g id="グループ_271" data-name="グループ 271" transform="translate(1086.56 448.351)">
      <g id="グループ_270" data-name="グループ 270" clip-path="url(#clip-path)">
        <path id="パス_455" data-name="パス 455" d="M278.259,167c-.667-1.668-2.418-3.753-3.085-5.171a15.355,15.355,0,0,1-.835-4.17c-.333-1.834-2.168-3.5-3-4.92-.75-1.418-.75-3-1.585-4.671s-2.668-5.67-2.836-6a9.443,9.443,0,0,0-3.67-.834c-.5,0-.833-.584-.833-1.168a2.3,2.3,0,0,1,1.25-2.168,4.2,4.2,0,0,1,1-.167c1.334,0,3,.5,5.253.584,1.836,0,1.752-.417,3.252-.584,1.836,0,2.669.251,3.754.251.751,0,1.334,1.084,1.334,1.917a.972.972,0,0,1-.167.585c-.083.083-.25.167-.25.333a11.49,11.49,0,0,0,1.418,3.335,39.5,39.5,0,0,0,3.252,6.089,8.157,8.157,0,0,1,1.668,3.919,3.657,3.657,0,0,0,2.335,2.752c.5,0,.584-.751,1.252-2.168a26.3,26.3,0,0,0,2.084-5.254,20.523,20.523,0,0,1,1.335-3.835,21.017,21.017,0,0,0,1.334-4.921c0-.5-1.5-.334-1.751-.584-.167-.083-.167-.167-.167-.333a3.58,3.58,0,0,1,.835-2c.667-.5,3-.333,3.753-.5a2.1,2.1,0,0,1,.834-.083,22.919,22.919,0,0,1,2.5.251c.835.167,2.5.083,2.5.834a1.707,1.707,0,0,1-1.25,1.751c-.917.251-1.752-.083-2.669.667-1,.834-.667,1.584-1.751,4.253s-2,2.836-2.752,4.754c-.75,2-.835,3.252-1.584,5.337-.668,2-2.086,4.254-2.5,5.5-.5,1.251-1,4.754-1.669,6.172a16.66,16.66,0,0,0-1.334,2.835,19.6,19.6,0,0,1,.167,2c-.167,1-.418,2-.918,4-.834,3-.75,4.419-2.168,6.5a26.3,26.3,0,0,0-2.5,4.587,13.75,13.75,0,0,1-2.084,3.835c-1.335,1.918-2.836,1.835-3.837,2.836-1.084,1-3.67,1.251-6.171,1.251-2.418,0-5.755-1.335-6.422-3.252-.583-1.585-1.667-2.752-1.667-4.588a4.35,4.35,0,0,1,3.919-3.835,4.746,4.746,0,0,1,2.418.917,5.177,5.177,0,0,1,1.168,2.918c0,.917-.834,1.669-.834,2.669a2.755,2.755,0,0,0,2.335,2.169,8.483,8.483,0,0,0,6.171-3.17c.5-.5,1.084-.584,1.5-1.084a17.494,17.494,0,0,0,.667-1.918,24.961,24.961,0,0,0,1.751-3.419c.417-1.752,1-4.671,1.335-6.589.082-.5-.418-3.585-.334-4.252-.584-1.418-1.168-2.5-1.752-4.17" transform="translate(-59.417 -31.372)" fill="#fff"/>
        <path id="パス_456" data-name="パス 456" d="M39.445,41.362c0-2.418.083-6,.083-8.506-.166-1.084-.75-1.418-2-1.418a1.891,1.891,0,0,1-1.418-1.417c-.083-2.418.834-2.919,1.085-2.919l1.584-.083c1.084-.334.834-2,1.166-3a1.228,1.228,0,0,0,.084-.584c0-1.167-.5-2.835-.5-4.336,0-1.335.334-3.67.334-5.587,0-.917-.25-1.751-.25-2.752,0-1.584.332-3.252.332-5.087-.083-.584-1.834-1.084-2.585-1.25-.5-.167-.666-.835-.666-1.418a2.755,2.755,0,0,1,.417-1.584A.889.889,0,0,1,38.027,1C39.278,1,39.612.917,40.7.917c1.167,0,1.751.25,3.669.25C45.7,1.167,47.283,1,48.785,1a7.6,7.6,0,0,1,2.752.417c1.75.5,2.752.25,2.752,1.167a2.05,2.05,0,0,1-1.418,2,3.148,3.148,0,0,0-1.834,2.752,37.754,37.754,0,0,0-.417,6.254c.083,4.92.417,5.254.417,7.589,0,1.25-.083,2.5-.083,3.585a3.565,3.565,0,0,0,.333,1.918c.167.334.417.417.835.417a10.143,10.143,0,0,0,2.834-.5,3.612,3.612,0,0,0,.418-.083c.166,0,.333-.083.5-.083a9.888,9.888,0,0,1,2.168-.167,32.1,32.1,0,0,1,4.169.417,5.855,5.855,0,0,0,1.25.084c1.835,0,3.67-.334,5.837-.5,1.168,0,2.168.417,3.253.417.5-.25.417-1.418.583-3.169a6.257,6.257,0,0,0,.084-1.25c0-1.335-.25-2.668-.25-4.5,0-1.5-.251-2.252-.251-3.419a10.768,10.768,0,0,1,.251-2.085c.083-.834.083-1.668.083-2.585,0-1.751-.083-3.5-.083-4.42,0-1.5-2.168-.167-2.419-2.668A1.629,1.629,0,0,1,70.466,2c0-1.584,1.668-1.335,3.586-1.669A11.273,11.273,0,0,1,76.387,0c1.251,0,2.5.25,5.92.25,1.835,0,2.836.167,3.169.834A1.419,1.419,0,0,1,85.893,2a1.951,1.951,0,0,1-.583,1.084c-.666,1-1.834.417-2.168,1.5a6.355,6.355,0,0,0-.418,2.752c0,.834.084,1.751.084,2.585.083,1.751.167,4.087.167,5.921,0,3.085.5,4.336.834,7.422.083,1.168.167,1.834.167,2.5,0,1.335-.167,2.252-.167,5.254a50.98,50.98,0,0,0,.5,8.672c.417,3.17.417,10.509.417,11.509,0,.667,1.584,1.584,2.5,1.584,1.084.167,1.5.583,1.5,1.834,0,.835-.417,1-1.084,1-.333,0-.834-.083-1.251-.083-1.084,0-3.419.25-5.42.417-2.252,0-4.087-.084-5.755-.084-.75,0-1.584,0-2.585.084-1,0-1.334-.417-1.334-.917s.166-.835.166-1.168c0-.917,1-1.584,1.584-2.419.418-.833.334-2.334.584-4.753,0-2.418-.083-7.922-.25-9.257s-.334-6-.834-6.338c-.584-.167-2.085-1.5-3.835-1.5a5.748,5.748,0,0,0-1.085.167,5.725,5.725,0,0,1-2,.251c-1.085,0-2-.167-2.918-.167-.334,0-.584.084-.835.084-2,.25-3.835.083-5.754.333-1.751.167-3.336-.083-4.253.751a2.236,2.236,0,0,0-.584,1.834c0,4.753.167,5.671.167,7.506,0,3.919-.167,5.421-.167,7.338a61.371,61.371,0,0,1-2.252,13.093,9.535,9.535,0,0,1-1.085,3.419c-.833,1.5-.833,3.253-1.5,4.419-.25.418-1,1.752-2,3.252A35.008,35.008,0,0,1,50.2,75.3a46.321,46.321,0,0,0,9.173,5.421c.667,0,2.168,1.334,4.169,2.085a24.036,24.036,0,0,0,8.09,1.918c2.418.083,5.253.751,7.838.167,2.669-.584,5.255-1.417,6.588-3.169,1.752-2.335,3-4.5,3-7.254,0-3.253-.666-4.253-1.417-4.754s-2.836-2.418-3.919-2.5-4.169-.5-4.753.167-2.168,3.586-3.919,3.586-2.585-.917-2.585-2.669,2.5-4,5.92-4,7.256.75,9.257,2.334,3,2.5,3.335,3.252c1.418,3.42,1.085,3.086,1.25,5.421s-2.5,7.755-4.253,9.423-4.836,3.919-6.338,4.253a33.32,33.32,0,0,1-5.253,1.168,55.019,55.019,0,0,1-7.672-.5c-2.752-.333-3.252-1-6.088-1.5-.667-.083-2.586-1.834-4.587-2.5a43.4,43.4,0,0,1-4.42-2.5c-1.5-.834-4.669-2.418-5.671-3.086-.5-.417-3.585-2.5-6.254-4.253a12.961,12.961,0,0,1-1.918,2.168c-2.5,2.085-4.92,3.92-5.588,3.92s-1.25,1.417-2.168,1.918-6.422,2.919-7.839,3-3.252.418-6.838.418c-5.921,0-9.59-1.251-10.675-2.085s-3-1.419-3.919-2.586A14.352,14.352,0,0,1,0,73.552c0-4.086,3.92-8.506,7.005-10.174a17.735,17.735,0,0,1,9.173-2.251c4.753,0,7.672.75,8.506,1.417a7.653,7.653,0,0,0,4.085,1.168c.835-.167,2.086.666,3.587,1.334A28.963,28.963,0,0,1,37.943,67.8c.917-3,1.835-8.506,1.835-21.015,0-1.085-.251-2.252-.334-5.421m-3.5,31.022a6.81,6.81,0,0,1-1.752-1.667c-.667-1.085-2.585-1.752-4.253-2.252s-2-1.752-4.419-2.5a32.759,32.759,0,0,0-7.5-1.918,19.2,19.2,0,0,0-6.255,0c-1.918.333-1.834-.25-3.919,1.335S3.92,68.214,3.42,69.466a9.942,9.942,0,0,0-1.251,4.42c0,.917-.25,2.668.584,3.752s2,1.751,2.168,2.752a4.12,4.12,0,0,0,2.418,2.586c1,.333,6.087,2.251,8.339,2.168s1.834.333,5.254-.5,6.088-2.585,8.006-3.418,1.668-2,2.335-1.835,1.918-2.251,2.752-3.086a16.878,16.878,0,0,0,1.918-3.919" fill="#fff"/>
        <path id="パス_457" data-name="パス 457" d="M158.825,58.308a3.057,3.057,0,0,0,2.418-1.834c.167-1.167.418-1.668,1.668-1.668.835,0,1.335.417,1.335,1.417a3.987,3.987,0,0,1-1.584,3.253,28.366,28.366,0,0,1-2.5,1.917c-1.083.751-3,.835-4.67.835-2.084,0-3.5-1.418-4.336-1.418-1.334-.75-2-2.5-2.5-3.169-.167-.167-.917-2.668-1.085-2.668-1,0-2,2.419-2.752,3.169-.834.917-2.418,2.334-3.753,2.334-1.584,0-1.918,1.168-4.837,1.335a18.392,18.392,0,0,1-5.5-.583c-.084,0-.251-.083-.334-.083-.167,0-.25-.083-.417-.083-2-.585-4-1.167-5.253-2.668-1.251-1.418-1.168-1.918-1.752-3.67-.5-1.834-1.584-3.252-2.418-5.087a7.17,7.17,0,0,1-.334-2.334c0-1.418.251-3.252.334-5.087.25-3.086,2.251-5.253,3.085-7.172.751-1.834,1-1.584,1.834-2.251a18.452,18.452,0,0,0,3.5-3.335c.584-.751,2.418-1.084,3.336-1.084a18.624,18.624,0,0,1,4.336-1.418,4.444,4.444,0,0,1,1.751-.251,22.56,22.56,0,0,1,4,.75c2.085.334,4.5,4,4.419,3.919a4.082,4.082,0,0,1,3.42-3.669,14.092,14.092,0,0,1,2.919-.334,5.511,5.511,0,0,1,1.167.083,3.712,3.712,0,0,0,.918.084c.75,0,.75-.334,2.168-.5a3.866,3.866,0,0,1,.834-.083c1,0,1.084.583,1.584,1.418a2.172,2.172,0,0,1,.251.916.771.771,0,0,1-.751.834c-.751,0-2.5.584-2.836,1.5a7.36,7.36,0,0,0-.417,2.336,8.585,8.585,0,0,1,.083,1.5c0,2.084-.167,4.336-.167,8.09.083,1.084.083,1.917.083,2.752,0,1.584-.083,2.752-.083,6.754,0,3.5,1.335,5.254,2.836,5.254m-14.26-25.1c-.751-.834-1.918-2.168-3.169-2.168a6.644,6.644,0,0,0-2.335-.585,2.5,2.5,0,0,0-1.5.5,22.127,22.127,0,0,0-3.086,2.169c-1.5,1.25-1.335,2.668-1.919,4.587a18.7,18.7,0,0,0-1.167,6.838,60.834,60.834,0,0,0,.25,6.587,6.836,6.836,0,0,0,2.336,4.672l.333.332a3.652,3.652,0,0,0,2.5,1.084c2,0,2.585-.5,4.086-1.835,1.751-1.5,2.586-1,2.586-2.251s2.084-2.585,2.5-4.169a6.827,6.827,0,0,0,.167-1.918c0-1.5-.167-3.335-.334-5.67a10.119,10.119,0,0,1-.083-1.585c0-2.5.417-4.169.417-5a.359.359,0,0,0-.083-.249c-.251-.085-.584-.334-1.5-1.335" transform="translate(-27.481 -6.104)" fill="#fff"/>
        <path id="パス_458" data-name="パス 458" d="M180.992,72.133c0-2.168-.334-3.169-.334-5.171v-.584c.083-1.918.334-2.918.334-4.753,0-.417-.083-1-.083-1.5-.167-2.418-.251-3-.251-4.42V52.535c0-1.834,0-3.5-.083-4.586s-.084-2.669-.084-4.587V39.025a36.5,36.5,0,0,0-.249-5.17c-.167-1.168-.5-2.668-1-2.668-.5.167-1.251,1.084-2.085,1.084-.5-.083-.835-1.084-.835-1.918,0-.167.084-.333.084-.5.167-.834,0-1.584,1.584-1.668h4.669a20.632,20.632,0,0,0,4.921-.417,5.74,5.74,0,0,1,1.084-.167c.835,0,1.584.25,1.668,1a20.632,20.632,0,0,1-.667,2.668,9.665,9.665,0,0,0-.083,1.752v3.085a6.031,6.031,0,0,0,.167,1.752c.25-.25,2.418-4,3.585-5.254a20.09,20.09,0,0,1,5-3.836c.251,0,.417-.167.668-.167a22,22,0,0,1,5-1.25,1.858,1.858,0,0,1,.751.083c1.417.417,5,1.918,6.337,3.336s3.753,4.753,4.086,7.756a20.109,20.109,0,0,1,.167,3.168,26.28,26.28,0,0,1-.25,4,34.974,34.974,0,0,1-2.252,7.422c-.5.917-.083,1.669-1,2.5-1.251,1.084-.835,1.168-1.668,2.252-.751,1.085-2.336,1.835-3.169,2.5-.918.584-1.919.584-2.752,1.335a6.256,6.256,0,0,1-3.252,1,5.142,5.142,0,0,1-1.085-.083,10.172,10.172,0,0,0-3.085-.417,19,19,0,0,0-2,.083c-1.918,0-4-2.084-4.837-2.084-.083,0-.167.083-.167.249,0,.584.417,2.252.5,3.753,0,1.5.167,2.668.167,4a17.256,17.256,0,0,1-.334,3.336A2.474,2.474,0,0,0,190,72.717a29.5,29.5,0,0,0,.5,3.919c.333,1.919.25,2.836,1.168,3.919.417.5,1.166.834,1.166,1.834-.083,1-.083,1.168-1.417,1.5-.167,0-.251.083-.333.083a4.234,4.234,0,0,1-1.668.334,8.659,8.659,0,0,1-1.335-.083c-1.584-.251-.917-.584-3.169-.584-2.417.083-3.585.333-4.169.333a7.985,7.985,0,0,0-2.335-.417,1.293,1.293,0,0,1-1.418-1.334.62.62,0,0,1,.084-.417c.333-.751,2.252-1.167,2.752-1.167s.584-.418.751-4.337c.083-2.252.417-.751.417-4.169m8.923-22.266c0,2.085,1,4.5,1.25,5.921.334,1.584,1.335,2.252,2.919,3.085,1.5.751,1.918.417,3.336.918a3.177,3.177,0,0,0,1.417.333,4.118,4.118,0,0,0,2.585-.835c.751-.582,1.251-1.667,1.752-3.5a21.627,21.627,0,0,0,.833-5.254c.167-1.918.167-4.5.251-8.256a16.914,16.914,0,0,0-.584-4.253c-.417-1.751-3-5-5.421-5.087-.166,0-.333-.167-.584-.167-.417,0-.917.5-1.75,1.167l-.251.25c-1.251,1.168-1.584,2.418-2.918,4.17a13.943,13.943,0,0,0-2.168,5,63.238,63.238,0,0,0-.667,6.5" transform="translate(-40.308 -6.253)" fill="#fff"/>
        <path id="パス_459" data-name="パス 459" d="M236.45,72.133c0-2.168-.334-3.169-.334-5.171v-.584c.083-1.918.334-2.918.334-4.753,0-.417-.083-1-.083-1.5-.167-2.418-.251-3-.251-4.42V52.535c0-1.834,0-3.5-.083-4.586s-.084-2.669-.084-4.587V39.025a36.523,36.523,0,0,0-.249-5.17c-.167-1.168-.5-2.668-1-2.668-.5.167-1.251,1.084-2.085,1.084-.5-.083-.835-1.084-.835-1.918,0-.167.084-.333.084-.5.167-.834,0-1.584,1.585-1.668h4.669a20.63,20.63,0,0,0,4.921-.417,5.743,5.743,0,0,1,1.084-.167c.835,0,1.584.25,1.668,1a20.741,20.741,0,0,1-.667,2.668,9.679,9.679,0,0,0-.083,1.752v3.085a6.069,6.069,0,0,0,.167,1.752c.251-.25,2.419-4,3.586-5.254a20.093,20.093,0,0,1,5-3.836c.251,0,.417-.167.668-.167a22,22,0,0,1,5-1.25,1.851,1.851,0,0,1,.75.083c1.418.417,5,1.918,6.338,3.336s3.753,4.753,4.086,7.756a20.106,20.106,0,0,1,.167,3.168,26.268,26.268,0,0,1-.25,4,34.967,34.967,0,0,1-2.252,7.422c-.5.917-.083,1.669-1,2.5-1.251,1.084-.835,1.168-1.668,2.252-.751,1.085-2.336,1.835-3.17,2.5-.917.584-1.918.584-2.752,1.335a6.253,6.253,0,0,1-3.252,1,5.143,5.143,0,0,1-1.085-.083,10.173,10.173,0,0,0-3.085-.417,19,19,0,0,0-2,.083c-1.918,0-4-2.084-4.837-2.084-.083,0-.167.083-.167.249,0,.584.417,2.252.5,3.753,0,1.5.167,2.668.167,4a17.31,17.31,0,0,1-.334,3.336,2.474,2.474,0,0,0-.167,1.168,29.513,29.513,0,0,0,.5,3.919c.333,1.919.25,2.836,1.168,3.919.417.5,1.166.834,1.166,1.834-.083,1-.083,1.168-1.417,1.5-.167,0-.251.083-.333.083a4.238,4.238,0,0,1-1.669.334,8.655,8.655,0,0,1-1.334-.083c-1.585-.251-.917-.584-3.169-.584-2.417.083-3.585.333-4.169.333a7.986,7.986,0,0,0-2.335-.417,1.293,1.293,0,0,1-1.418-1.334.62.62,0,0,1,.084-.417c.333-.751,2.252-1.167,2.752-1.167s.584-.418.751-4.337c.083-2.252.417-.751.417-4.169m8.923-22.266c0,2.085,1,4.5,1.251,5.921.334,1.584,1.335,2.252,2.919,3.085,1.5.751,1.918.417,3.336.918a3.182,3.182,0,0,0,1.418.333,4.117,4.117,0,0,0,2.585-.835c.751-.582,1.251-1.667,1.752-3.5a21.632,21.632,0,0,0,.833-5.254c.167-1.918.167-4.5.251-8.256a16.917,16.917,0,0,0-.584-4.253c-.417-1.751-3-5-5.421-5.087-.166,0-.333-.167-.584-.167-.417,0-.917.5-1.75,1.167l-.251.25c-1.251,1.168-1.585,2.418-2.918,4.17a13.945,13.945,0,0,0-2.168,5,63.247,63.247,0,0,0-.667,6.5" transform="translate(-52.986 -6.253)" fill="#fff"/>
        <path id="パス_460" data-name="パス 460" d="M311.8,60.559c0-2,.251-5.337.251-6.672,0-1.417-.5-3.669-.75-3.669-.084,0-.084.083-.168.334-.25,1.334-1.5,3-2.334,4.67-.751,1.668-1.584,1.834-3,3.5a9.548,9.548,0,0,1-4.336,2.752,4.856,4.856,0,0,1-1.584.167c-.667,0-1.5,0-2.668-.083-2.168-.084-4.169-1.252-6-1.918-1.752-.584-3-3.17-3.336-4.087a18.231,18.231,0,0,1-.667-4.086c-.083-.917-.249-3.169-.249-5.087a15.613,15.613,0,0,1,.083-2.085c0-.417.083-.834.083-1.334,0-1.335-.166-2.752-.166-4.253V35.959c0-2.085-.084-4.42-.167-5-.168-.835-.917-.835-2-.835-.584,0-.835-.583-.835-1.25a4.835,4.835,0,0,1,.167-1.084c.083-.417.751-.5,1.585-.5.667,0,1.167.083,1.668.083a16.72,16.72,0,0,0,4.42-.5,4.374,4.374,0,0,1,1.5-.167,17.413,17.413,0,0,1,3.419.417c.5.167.667.668.667,1.252,0,1-.75,1.417-.75,2.585,0,.583.083,1.418.083,2.418v1.25a11.867,11.867,0,0,0-.083,1.668c0,1.668.166,3.252.166,4.921V42.63a13.562,13.562,0,0,0-.083,1.752c0,1.751.167,3.169.167,4.587,0,3,.916,4.253,1.167,6.087.25,2.168,1.584,1.752,2.336,2.5a1.343,1.343,0,0,0,.75.251,5.274,5.274,0,0,0,2.419-1c2.168-1.251,2-1.419,3-3a36.45,36.45,0,0,0,2.668-4.919c.584-1.419,1.584-4.5,2.252-6.088a4.68,4.68,0,0,0,.5-2.418c0-.835-.083-1.835-.083-3.086a18.527,18.527,0,0,0-.5-5.087,14.055,14.055,0,0,1-.333-3.5c.083-1.167,1.167-.916,2.334-1.083s2.919,0,4.588-.251c1.75-.251,2.835-.167,4.335-.5a6.561,6.561,0,0,1,1.335-.167,2.606,2.606,0,0,1,1.918.584.5.5,0,0,1,.084.334c0,.583-.584,1.167-1.334,1.834-.835.666-1.335.417-2.252.751a.861.861,0,0,0-.584.917c0,.667.166,1.418.251,2.585,0,2.335-.168,3.919-.168,5.837.083,2.752.083,4.67.083,6,0,5,.584,7.922.584,11.091a23.449,23.449,0,0,1-.584,5.588,25.492,25.492,0,0,1-.166,3c-.168.667.166,2.335.166,4.587a19.48,19.48,0,0,1-.834,6.087c-.75,1.419-.668,3.587-1.584,4.5a7.4,7.4,0,0,0-1.335,3.086.651.651,0,0,0,.25.584A28.333,28.333,0,0,1,323.061,87a46.344,46.344,0,0,0,9.173,5.42c.667,0,2.169,1.335,4.169,2.085.084,0,.167.083.251.083a23.583,23.583,0,0,0,7.839,1.835c1.668.083,3.669.417,5.5.417a10.547,10.547,0,0,0,2.334-.25c2.669-.584,5.254-1.418,6.589-3.17,1.751-2.334,3-4.5,3-7.255,0-3.252-.667-4.253-1.417-4.753s-2.836-2.419-3.92-2.5a26.739,26.739,0,0,0-3-.167,2.92,2.92,0,0,0-1.751.333c-.584.667-2.168,3.587-3.92,3.587s-2.585-.918-2.585-2.669,2.5-4,5.921-4,7.256.751,9.257,2.335,3,2.5,3.335,3.252c1.418,3.419,1.418,3.585,1.418,6.171,0,3.836-2.752,7.088-4.42,8.673-1.75,1.668-4.836,3.919-6.338,4.253a33.4,33.4,0,0,1-5.253,1.168,55.03,55.03,0,0,1-7.672-.5c-2.752-.334-3.253-1-6.087-1.5-.668-.083-2.586-1.834-4.587-2.5a43.3,43.3,0,0,1-4.419-2.5c-1.5-.835-4.67-2.419-5.671-3.086-.5-.417-3.586-2.5-6.254-4.253a12.986,12.986,0,0,1-1.918,2.167c-2.5,2.086-4.92,3.92-5.588,3.92S305.8,95,304.882,95.5s-6.421,2.918-7.839,3a68.491,68.491,0,0,1-6.838.417c-5.921,0-9.59-1.25-10.675-2.084s-3-1.417-3.919-2.585a14.354,14.354,0,0,1-2.752-9.006c0-4.087,3.92-8.506,7.005-10.174a17.736,17.736,0,0,1,9.174-2.252c4.753,0,7.672.751,8.506,1.417A8.655,8.655,0,0,0,301.88,75.4c.834,0,2,.751,3.336,1.335A28.9,28.9,0,0,1,310.8,79.49a46.766,46.766,0,0,0,1-7.339c.084-1,.084-3.086.084-5.087,0-1.584.083-3.169.083-4,0-.333-.167-1.918-.167-2.5m-3,23.517a6.782,6.782,0,0,1-1.752-1.668c-.667-1.085-2.585-1.752-4.253-2.252s-2-1.751-4.42-2.5a32.654,32.654,0,0,0-7.5-1.918,35.088,35.088,0,0,0-3.585-.251,15.1,15.1,0,0,0-2.669.251c-1.918.333-1.835-.251-3.92,1.334s-3.919,2.836-4.419,4.086a9.954,9.954,0,0,0-1.251,4.42c0,2.168.083,3.085.584,3.753.834,1.084,2,1.751,2.168,2.752a4.12,4.12,0,0,0,2.418,2.585c1,.333,5.838,2.168,8.34,2.168a18.633,18.633,0,0,0,5.254-.5c3.419-.833,6.087-2.585,8.005-3.419,2.085-.917,1.5-1.834,2.418-1.834.667,0,1.834-2.252,2.668-3.086a16.915,16.915,0,0,0,1.918-3.919" transform="translate(-62.377 -6.104)" fill="#fff"/>
        <path id="パス_461" data-name="パス 461" d="M317.795,135.2c0-1,0-1.918,1-2.5.835-.417,1.419-1.167,2.086-2.835a10.1,10.1,0,0,0,.249-1.918,4.87,4.87,0,0,0-1.167-2.835,3.924,3.924,0,0,1-.666-2.5v-1c.166-1.5,1.5-2.752,2.084-3.836a2.94,2.94,0,0,1,2.168-.584,13.786,13.786,0,0,1,3.086.335c1.167.249,2.585,2.835,2.585,4.085.083.835.333,2.085.333,3.086a2.389,2.389,0,0,1-.333,1.418,9.737,9.737,0,0,1-1.5,3.169,9.87,9.87,0,0,0-1.919,2.835c-.416.584-.917,1.835-1.668,1.918-.917.167-1.667,1.584-2.334,1.752a4.5,4.5,0,0,1-2.252,1c-1.5-.083-1.752-.751-1.752-1.584" transform="translate(-72.649 -26.79)" fill="#fff"/>
        <path id="パス_462" data-name="パス 462" d="M344.8,168.334c1.335,0,1.835-1.084,2.335-2.084a3.03,3.03,0,0,0,.167-1.167c0-3.17-1.584-5.5-5.671-7.088-1.75-.668-1.668-1.752-2.835-1.918-1.251-.167-4.587-1.834-5.755-3.753a10.479,10.479,0,0,1-1.667-5.337c.082-1.585,0-2.835,1.25-4.253,1.251-1.334,2.168-2.918,4.169-3.919a47.838,47.838,0,0,1,4.587-1.835,14.865,14.865,0,0,1,4.419-.667,12.744,12.744,0,0,1,2.5.25,45.12,45.12,0,0,0,4.837.668c1,.083,1.418-.668,2.5-.167s.834,1.584.5,3.336a21.04,21.04,0,0,0-.5,3.919,7.924,7.924,0,0,1-.5,3.336c-.417.835-2.836.835-3.085-.417s-1.5-2.418-2.252-4-1.418-2.92-2.252-2.92-1.669-.833-2.669-.833a1.3,1.3,0,0,0-.917.249c-1,.834-1.167,1.418-1.167,3.42a4,4,0,0,0,1.668,3.67,21.311,21.311,0,0,0,4.837,2.752c2.085,1,3.252,1.25,4.337,2.835,1.084,1.5,2.751,4.087,2.751,6.421-.167,2.168,0,3.753-.834,5.755a9.442,9.442,0,0,1-2.335,3.251c-1.084,1.335-1.167,1.919-2.752,2.836-1.668,1-3.169,1.251-6.172,1.418s-7.254-1.918-8.755-1.918c-1.334,0-3.753,1.251-4.42.584s-.333-4.42-.333-6.089-.417-4.085-.417-5.5.5-2.836,1.668-2.668,1.668.333,2.419,2.085,3.418,4.586,4.753,5.837,1.668,2,2.334,2.252c.417.166,1,1.667,3.252,1.667" transform="translate(-75.525 -31.162)" fill="#fff"/>
        <path id="パス_463" data-name="パス 463" d="M170.808,120.323c1.083,1.918,3.251,5,4.086,7.672a30.708,30.708,0,0,1,1.334,7.755,55.444,55.444,0,0,1-1.667,12.926,31.493,31.493,0,0,1-5.671,9.507c-1.5,1.335-3.5,2.168-5.17,3.836s-5.5,2.5-7.756,2.919a44.462,44.462,0,0,1-6.754.333c-1.751,0-4.669.5-6.838.5-1.584.084-4.169.5-6.172.5a6,6,0,0,1-1.834-.166c-2-.584-3.669-.335-5.5-.5a1.813,1.813,0,0,1-1.751-1.835,3.221,3.221,0,0,1,.5-1.668,1.314,1.314,0,0,1,1.084-.584c.5,0,.918.251,1.835.334.751,0,1.084-.5,1.168-2.168,0-1.167-.084-3.168-.084-5.087a27.065,27.065,0,0,1,.251-4.169,9.2,9.2,0,0,0,.166-2.084c0-1.085-.083-2.168-.083-3.586,0-3.587-.249-5.421-.249-7.172a7.539,7.539,0,0,1,.249-2.084,7.278,7.278,0,0,0,.251-2c0-1.5-.251-3.336-.251-5,0-5.587.251-5.421.167-7.005,0-2,.167-4.253.833-5a4.083,4.083,0,0,1,2.586-1.5,31.167,31.167,0,0,1,3.753-.5,2.811,2.811,0,0,1,2.752,3.252c-.167,1-.167-2.085-.167,4.169l.25,5.254a28.7,28.7,0,0,1-.083,2.919,19.167,19.167,0,0,0,.167,3c0,.5.084,1.251.084,2,0,2.334-.167,5.5-.167,8.172,0,2.418-.166,3.919-.166,5.5,0,.751.083,1.418.166,2.5a38.821,38.821,0,0,1,.584,6.421c0,1-.167,1.835-.167,2.668a2.745,2.745,0,0,0,.583,2,3.24,3.24,0,0,0,1.835.333,29.089,29.089,0,0,0,3.669-.251c.251,0,.5-.083.751-.083A34.869,34.869,0,0,0,156.3,160.6c2.085-.584,3.17-1.835,4.587-4.085,1.5-2.336,4-7.84,4.253-10.174,0-.418.084-1.085.084-1.918a125.129,125.129,0,0,0-.751-14.01c-.5-2.835-3.419-7.5-5.253-10.007-1.918-2.585-3.169-5.421-5.5-6.254-1.085-.5-4.5-3.252-6.172-3.252-1.918-.668-2.836-.668-6.254-.834a37.562,37.562,0,0,0-8.172.5c-2,.334-4.253.334-6,1.167s-3.835,1.584-6.254,2.752a14.137,14.137,0,0,0-4.753,3.086,45.161,45.161,0,0,0-4.254,5.254c-.667,1.166-1.751,3.585-2.919,5.421s0,3.919-.666,5.253.666,3.919.834,5.171.834,3.669,1.751,4.586a13.5,13.5,0,0,0,3.5,2.335c1.335.667,4.42.167,4.753.167a8.275,8.275,0,0,0,2.752-1.334c.5-.5.751-1.25,1.334-1.669a5.7,5.7,0,0,0,1.918-3.585,4.363,4.363,0,0,0-1.168-4.086c-1.5-1.668-4.253-1.167-4.253-1.167a3.469,3.469,0,0,1,.834,2.084,2.591,2.591,0,0,1-2.418,2.336,2.812,2.812,0,0,1-2.835-3.086c0-2.335,2.418-3.753,4.419-3.753a11.157,11.157,0,0,1,4.5.918c2.084.667,3.5,3,3.5,6.5,0,2.5-1.085,3.086-1.25,4.253-.167,1.417-2,2.251-2.836,3.085s-3.42,1.752-6.838,1.752-4.753-.167-7.005-1.585a12.98,12.98,0,0,1-5.921-8.088c-.417-2.085-1.335-3.92-.833-5s.5-4,1.166-6.171,2.419-4.67,4.253-7.088a22.8,22.8,0,0,1,6.088-5.253c1.834-1.168,4.085-2.752,5.67-3.086a7.745,7.745,0,0,0,3.086-1.334c2.085-1.584,4-.834,9.339-2.085s9.841-1,14.761-.5a30,30,0,0,1,13.093,3.836c3.336,1.75,9.089,6.838,10.341,8.672" transform="translate(-23.515 -24.553)" fill="#fff"/>
        <path id="パス_464" data-name="パス 464" d="M244.148,168.838A3.059,3.059,0,0,0,246.565,167c.167-1.168.417-1.668,1.668-1.668.835,0,1.335.417,1.335,1.417A3.986,3.986,0,0,1,247.984,170a28.2,28.2,0,0,1-2.5,1.918c-1.083.751-3,.835-4.67.835-2.084,0-3.5-1.417-4.337-1.417-1.334-.751-2-2.5-2.5-3.17-.167-.166-.917-2.668-1.085-2.668-1,0-2,2.418-2.752,3.169-.834.917-2.418,2.334-3.753,2.334-1.584,0-1.918,1.168-4.837,1.335a18.41,18.41,0,0,1-5.5-.584c-.084,0-.251-.084-.335-.084-.166,0-.249-.083-.417-.083-2-.584-4-1.167-5.253-2.668-1.251-1.417-1.168-1.918-1.752-3.669-.5-1.834-1.584-3.252-2.418-5.086a7.188,7.188,0,0,1-.334-2.336c0-1.417.25-3.252.334-5.087.249-3.085,2.251-5.253,3.085-7.171.751-1.835,1-1.584,1.834-2.252a18.433,18.433,0,0,0,3.5-3.336c.584-.75,2.418-1.084,3.336-1.084a18.727,18.727,0,0,1,4.336-1.418,4.457,4.457,0,0,1,1.751-.25,22.558,22.558,0,0,1,4,.751c2.085.333,4.5,4,4.419,3.919a4.079,4.079,0,0,1,3.42-3.669,14.044,14.044,0,0,1,2.919-.334,5.5,5.5,0,0,1,1.166.083,3.752,3.752,0,0,0,.918.083c.751,0,.751-.333,2.168-.5a3.792,3.792,0,0,1,.834-.084c1,0,1.084.584,1.585,1.418a2.182,2.182,0,0,1,.251.918.77.77,0,0,1-.751.833c-.751,0-2.5.584-2.836,1.5a7.361,7.361,0,0,0-.416,2.335,8.593,8.593,0,0,1,.083,1.5c0,2.085-.167,4.337-.167,8.089.083,1.085.083,1.918.083,2.752,0,1.584-.083,2.752-.083,6.754,0,3.5,1.335,5.254,2.836,5.254m-14.26-25.1c-.751-.834-1.919-2.168-3.169-2.168a6.662,6.662,0,0,0-2.335-.584,2.5,2.5,0,0,0-1.5.5,22.159,22.159,0,0,0-3.086,2.168c-1.5,1.251-1.334,2.668-1.918,4.587a18.708,18.708,0,0,0-1.167,6.838,60.891,60.891,0,0,0,.25,6.588,6.832,6.832,0,0,0,2.336,4.67l.333.333a3.651,3.651,0,0,0,2.5,1.084c2,0,2.585-.5,4.086-1.834,1.751-1.5,2.586-1,2.586-2.252s2.084-2.585,2.5-4.169a6.829,6.829,0,0,0,.167-1.918c0-1.5-.167-3.335-.334-5.67a10.019,10.019,0,0,1-.084-1.584c0-2.5.418-4.169.418-5a.367.367,0,0,0-.083-.25c-.251-.083-.584-.334-1.5-1.334" transform="translate(-46.987 -31.372)" fill="#fff"/>
      </g>
    </g>
    <g id="グループ_290" data-name="グループ 290" transform="translate(1130.687 319.425)">
      <g id="グループ_287" data-name="グループ 287">
        <g id="グループ_286" data-name="グループ 286" clip-path="url(#clip-path-2)">
          <path id="パス_663" data-name="パス 663" d="M110.479,128.926c-24.17,0-48.208-14.982-58.254-37.329C41.042,66.725,47.741,35.265,68.153,16.8c20.009-18.107,52.053-22.077,76.2-9.442,12.114,6.338,21.522,16.059,26.494,27.371,3.4,7.728,5.033,16.648,5,27.265-.036,12.5-2.551,30.278-14.335,43.985-9.982,11.61-25.485,19.746-42.536,22.319a56.781,56.781,0,0,1-8.494.632m8.387-1.345h0ZM113.514,1.436c-16.229,0-32.488,5.657-44.392,16.429C49.16,35.927,42.608,66.688,53.541,91.006c10.97,24.4,39.011,39.807,65.218,35.862,16.713-2.523,31.9-10.482,41.655-21.835,11.5-13.372,13.952-30.79,13.986-43.047.031-10.412-1.566-19.141-4.879-26.681C164.68,24.292,155.5,14.819,143.68,8.631a65.162,65.162,0,0,0-30.166-7.2" transform="translate(-1.765 0)" fill="#fff"/>
          <path id="パス_664" data-name="パス 664" d="M58.827,52.43a.733.733,0,0,1-.225-.036.721.721,0,0,1-.46-.911c6.809-20.709,25.438-37.064,46.354-40.7,21.587-3.747,44.681,6.238,56.162,24.285a.721.721,0,0,1-1.217.775c-11.178-17.569-33.672-27.291-54.7-23.638-20.405,3.543-38.581,19.508-45.23,39.724a.721.721,0,0,1-.685.5" transform="translate(-2.189 -0.377)" fill="#fff"/>
          <path id="パス_665" data-name="パス 665" d="M112.3,122.912a53.714,53.714,0,0,1-40.4-18.358.722.722,0,1,1,1.1-.942,51.386,51.386,0,0,0,87.871-17.688.722.722,0,0,1,1.373.444,53.594,53.594,0,0,1-39.844,35.547,51.2,51.2,0,0,1-10.091,1" transform="translate(-2.702 -3.219)" fill="#fff"/>
          <path id="パス_666" data-name="パス 666" d="M219.24,115.088a.7.7,0,0,1-.09-.006l-3.9-.483a.722.722,0,0,1-.633-.725l.638-55.425a3.3,3.3,0,0,1-1.162.128,4.187,4.187,0,0,1-3.122-1.782c-1.085-1.627-1.059-3.678-.95-5.471a98.9,98.9,0,0,1,11.149-39.846.722.722,0,0,1,1.359.377c-2.122,38.24-2.964,71.769-2.572,102.5a.722.722,0,0,1-.722.731m-3.167-1.842,2.435.3c-.354-29.61.43-61.822,2.4-98.326a97.529,97.529,0,0,0-9.437,36.191c-.1,1.63-.126,3.327.71,4.582a2.737,2.737,0,0,0,2.011,1.141,1.493,1.493,0,0,0,1.263-.461.721.721,0,0,1,1.266.481Z" transform="translate(-7.911 -0.418)" fill="#fff"/>
          <path id="パス_667" data-name="パス 667" d="M216.341,114.741H216.3a.722.722,0,0,1-.683-.715q-.1-12.752.14-25.579c-.089-1.995-.158-3.958-.2-5.861a.719.719,0,0,1,.34-.626q.248-9.725.693-19.448a.726.726,0,0,1-.144-.422q-.062-4.514.067-9.042c-.037.188-.073.375-.112.564q0,.507.014,1.012a.692.692,0,0,1-.04.249,7.975,7.975,0,0,1-.563,3,.721.721,0,0,1-1.386-.177c-.011-.077-.019-.154-.029-.232-.087-.046-.17-.1-.253-.149l-.061.775a.722.722,0,0,1-1.436.039q-.127-.957-.214-1.924a1.011,1.011,0,0,1-.245.037.722.722,0,0,1-.7-.65q-.108-1.068-.156-2.136a.834.834,0,0,1-.163,0,.723.723,0,0,1-.642-.774,112.793,112.793,0,0,1,10.1-38.786.721.721,0,1,1,1.31.605c-.19.413-.378.826-.563,1.24a.728.728,0,0,1,.144.4.721.721,0,0,1,1,.835q-.621,2.4-1.192,4.81l.019,0a.722.722,0,0,1,.543.8q-1.185,8.9-2.122,17.9-.277,4.583-.506,9.183c-.249,6.64-.325,13.265-.4,19.751-.092,8.071-.187,16.379-.611,24.738,0,.38,0,.758-.009,1.138.042,2.02.107,4.075.17,6.1.128,4.095.261,8.328.211,12.14a.722.722,0,0,1-.712.712h-.01a.722.722,0,0,1-.722-.691c0-.136-.011-.271-.016-.407q-.053.481-.109.959a.723.723,0,0,1-.717.638" transform="translate(-7.932 -0.508)" fill="#fff"/>
          <path id="パス_668" data-name="パス 668" d="M14.061,116.186a.721.721,0,0,1-.715-.629A590.368,590.368,0,0,1,8.48,43.4a.72.72,0,0,1,.591-.713A26.462,26.462,0,0,1,12,42.294a.72.72,0,0,1,.784.694c.815,24.035,2.655,48.328,5.469,72.2a.72.72,0,0,1-.677.8l-3.474.189h-.039M9.927,44a589.167,589.167,0,0,0,4.763,70.708l2.037-.112C13.99,91.18,12.187,67.371,11.366,43.8c-.4.043-.854.1-1.439.2" transform="translate(-0.32 -1.593)" fill="#fff"/>
          <path id="パス_669" data-name="パス 669" d="M16.627,116.047a.722.722,0,0,1-.708-.588c-.1-.516-.206-.981-.322-1.418a.722.722,0,0,1-1.4-.031q-.339-1.464-.643-3.007A48.311,48.311,0,0,1,11.93,99.936c-.421-4.042-.72-8.418-.9-13.166q-.078-1.875-.115-3.749a.722.722,0,0,1,.371-.645l-.7-9.829a.717.717,0,0,1,.124-.46A164.23,164.23,0,0,1,9.9,54.479a.779.779,0,0,1,.015-.143q.006-5.718.366-11.419A.722.722,0,0,1,11,42.24h.013a.722.722,0,0,1,.708.7l.045,1.636a.724.724,0,0,1,.012.184c0,.026,0,.053,0,.079l.56,20.534A.72.72,0,0,1,12.01,66l.231,4.015c.053-1.651.132-3.034.243-4.062a.721.721,0,0,1,1.439.077c0,9.127,2.146,39.934,3.42,49.2a.723.723,0,0,1-.6.811.68.68,0,0,1-.116.01m-1.705-8.032a.742.742,0,0,1,.186.038c-.285-3.029-.58-6.544-.866-10.241.2,3.793.426,7.323.68,10.2" transform="translate(-0.373 -1.592)" fill="#fff"/>
          <path id="パス_670" data-name="パス 670" d="M9.888,42.066c-3.772,0-6.324-1.193-7.766-3.616A14.086,14.086,0,0,1,.53,33.128,49.779,49.779,0,0,1,.207,21.476a.737.737,0,0,1,.06-.217l.908-2.025a.721.721,0,0,1,1.352.1,36.513,36.513,0,0,1,1.227,6.366l.023.233A5.9,5.9,0,0,0,4.51,28.75a1.824,1.824,0,0,0,1.253.731.859.859,0,0,0,.711-.214,2.354,2.354,0,0,0,.442-1.434,26.406,26.406,0,0,0,.024-4.166l-.011-.143c-.107-1.437-.24-3.226.895-4.469a1.627,1.627,0,0,1,.959-.564,1.306,1.306,0,0,1,1.037.278,2.691,2.691,0,0,1,.781,1.815l.391,5.82c.028.417.22,2.5,1.261,2.582.545.068,1.053-.571,1.207-1.164a6.158,6.158,0,0,0,.065-1.91c-.014-.231-.029-.461-.037-.692A11.543,11.543,0,0,1,15.3,18.659a.712.712,0,0,1,.62-.332.723.723,0,0,1,.608.353,11.185,11.185,0,0,1,1.162,5.6c.061,2.635.051,5.309-.029,7.948A15.935,15.935,0,0,1,16.5,38.7a5.456,5.456,0,0,1-4.072,3.21,22.056,22.056,0,0,1-2.541.158M1.63,21.744a49.232,49.232,0,0,0,.329,11.184,12.848,12.848,0,0,0,1.4,4.784c1.443,2.423,4.268,3.3,8.9,2.762h0A4.036,4.036,0,0,0,15.2,38.08a14.753,14.753,0,0,0,1.018-5.889c.078-2.614.088-5.262.028-7.872a14.254,14.254,0,0,0-.415-3.623,10.1,10.1,0,0,0-.895,4.477c.008.215.021.431.035.648a7.3,7.3,0,0,1-.11,2.365,2.841,2.841,0,0,1-2.713,2.242c-1.487-.114-2.432-1.545-2.592-3.927l-.391-5.818a1.686,1.686,0,0,0-.2-.728c-.019.017-.044.041-.074.074-.715.783-.617,2.108-.522,3.389l.011.145a27.679,27.679,0,0,1-.026,4.394A3.526,3.526,0,0,1,7.483,30.3a2.307,2.307,0,0,1-1.852.617,3.253,3.253,0,0,1-2.3-1.339,7.139,7.139,0,0,1-.987-3.51l-.023-.228a35.349,35.349,0,0,0-.672-4.133Z" transform="translate(0 -0.69)" fill="#fff"/>
          <path id="パス_671" data-name="パス 671" d="M8.506,41.285H8.472a.723.723,0,0,1-.6-.386c-.043-.082-.087-.166-.128-.248a.719.719,0,0,1-.63.073,1.726,1.726,0,0,1-.178-.074A.721.721,0,0,1,5.7,40.575q-.261-.486-.5-.983a.721.721,0,0,1-.874-.142,4.545,4.545,0,0,1-.526-.69.687.687,0,0,1-.261-.121,4.585,4.585,0,0,1-1.511-2.894q-.231-1.061-.411-2.128a33.308,33.308,0,0,1-.447-11.812.721.721,0,0,1,1.428.2c-.041.288-.078.577-.112.867l.381,4.986a.689.689,0,0,1,.224-.052.731.731,0,0,1,.743.515.719.719,0,0,1,.68.6l.272,1.638a.721.721,0,0,1,.559-.342.761.761,0,0,1,.5.151.721.721,0,0,1,1.3.237q.2.842.356,1.691L7.4,30.179a.723.723,0,0,1,.537-.735,93.433,93.433,0,0,1,.3-9.42.722.722,0,0,1,1.442.054l.063,9.429q.082-.625.176-1.249a.722.722,0,0,1,.7-.614.7.7,0,0,1,.721.594c.067.373.116.746.15,1.119a.721.721,0,0,1,1.259.5l0,.1c.087-.251.185-.5.3-.745a.722.722,0,0,1,1.276-.071c.158-1.269.356-2.529.55-3.764l.705-4.477a.722.722,0,0,1,1.434.143l-.653,14.787,0,.016a.714.714,0,0,1-.029.458.771.771,0,0,1-.685.663.659.659,0,0,1-.413-.114,11.751,11.751,0,0,1-.833,3.293.721.721,0,0,1-.586.432,1.175,1.175,0,0,1-.546-.069.8.8,0,0,1-.141.156.724.724,0,0,1-.579.153,1.55,1.55,0,0,1-1.085-.756c-.067.186-.143.372-.227.555a.727.727,0,0,1-.752.415.736.736,0,0,1-.19-.052.714.714,0,0,1-.235.1.722.722,0,0,1-.811-.375,1.9,1.9,0,0,1-.139.247.723.723,0,0,1-.6.326m7.343-4.551h0Z" transform="translate(-0.032 -0.729)" fill="#fff"/>
        </g>
      </g>
      <g id="グループ_289" data-name="グループ 289">
        <g id="グループ_288" data-name="グループ 288" clip-path="url(#clip-path-2)">
          <path id="パス_672" data-name="パス 672" d="M70.983,61.122q.424,11.144.848,22.288c.047,1.235,1.972,1.24,1.925,0q-.424-11.144-.848-22.288c-.047-1.235-1.972-1.24-1.925,0" transform="translate(-2.674 -2.268)" fill="#fff"/>
          <path id="パス_673" data-name="パス 673" d="M73.532,61.544q2.486,5.166,5.423,10.093a.971.971,0,0,0,1.662,0c1.929-3.868,3.276-7.955,4.9-11.949H83.664l5.485,19.271a.963.963,0,0,0,1.856-.512q-2.743-9.635-5.486-19.27a.971.971,0,0,0-1.855,0c-1.565,3.84-2.856,7.771-4.71,11.488h1.662q-2.936-4.924-5.423-10.092c-.537-1.116-2.2-.141-1.662.971" transform="translate(-2.767 -2.204)" fill="#fff"/>
          <path id="パス_674" data-name="パス 674" d="M100.234,58.466l9.677-1.277a1,1,0,0,0,.962-.962c0-.467-.444-1.031-.962-.962l-9.677,1.277a1,1,0,0,0-.962.962c0,.467.444,1.032.962.962" transform="translate(-3.74 -2.082)" fill="#fff"/>
          <path id="パス_675" data-name="パス 675" d="M96.761,58.456c-.02,5.744,1.126,11.454,1.927,17.121a24.374,24.374,0,0,0,.5,3.757c.463,1.47,1.981,1.162,3.187,1.033q5.381-.58,10.762-1.183c1.217-.136,1.231-2.062,0-1.925q-4.759.533-9.52,1.049a10.359,10.359,0,0,0-2.484.268l-.312.019c.173.178.233.174.177-.012-.017-.3-.067-.591-.1-.884-.147-1.211-.318-2.419-.494-3.627C99.647,68.9,98.666,63.7,98.686,58.456a.963.963,0,0,0-1.925,0" transform="translate(-3.646 -2.167)" fill="#fff"/>
          <path id="パス_676" data-name="パス 676" d="M100.456,69.694l9.022-1.163a.994.994,0,0,0,.962-.962.968.968,0,0,0-.962-.962l-9.022,1.163a.993.993,0,0,0-.962.962.968.968,0,0,0,.962.962" transform="translate(-3.749 -2.509)" fill="#fff"/>
          <path id="パス_677" data-name="パス 677" d="M116.878,56.578a201.261,201.261,0,0,0,2.625,21.2c.217,1.217,2.071.7,1.855-.512A196.658,196.658,0,0,1,118.8,56.578c-.087-1.229-2.011-1.238-1.925,0" transform="translate(-4.404 -2.097)" fill="#fff"/>
          <path id="パス_678" data-name="パス 678" d="M118.506,58.844c4.325,5.055,8.174,10.493,12.5,15.548a.972.972,0,0,0,1.643-.68q.1-11.509.206-23.017a.963.963,0,0,0-1.925,0q-.1,11.509-.206,23.017l1.643-.68c-4.325-5.055-8.174-10.493-12.5-15.548-.806-.943-2.162.424-1.361,1.361" transform="translate(-4.456 -1.875)" fill="#fff"/>
          <path id="パス_679" data-name="パス 679" d="M139.982,52.329a47.209,47.209,0,0,0,.695,12.341c.632,3.319,1.536,7.09,4.125,9.47a5.5,5.5,0,0,0,8.179-.665c2.282-2.706,2.584-6.838,2.92-10.213a55.106,55.106,0,0,0-.442-13.951c-.19-1.22-2.045-.7-1.855.512a53.2,53.2,0,0,1,.372,13.439c-.329,3.3-.646,9.366-4.656,10.435-4.071,1.085-5.818-5.153-6.46-7.97a45.129,45.129,0,0,1-.954-13.4c.092-1.236-1.833-1.23-1.925,0" transform="translate(-5.269 -1.832)" fill="#fff"/>
        </g>
      </g>
    </g>
  </g>
</svg>
