<svg xmlns="http://www.w3.org/2000/svg" xmlns:xlink="http://www.w3.org/1999/xlink" width="308.344" height="130.624" viewBox="0 0 308.344 130.624">
  <defs>
    <clipPath id="clip-path">
      <rect id="長方形_82" data-name="長方形 82" width="308.344" height="65.201" fill="none"/>
    </clipPath>
    <clipPath id="clip-path-2">
      <rect id="長方形_118" data-name="長方形 118" width="108.909" height="65.422" fill="none"/>
    </clipPath>
  </defs>
  <g id="グループ_315" data-name="グループ 315" transform="translate(-9171 -173.337)">
    <g id="グループ_271" data-name="グループ 271" transform="translate(9171 238.759)">
      <g id="グループ_270" data-name="グループ 270" clip-path="url(#clip-path)">
        <path id="パス_456" data-name="パス 456" d="M25.176,26.4c0-1.544.053-3.83.053-5.43-.106-.692-.479-.905-1.277-.905a1.207,1.207,0,0,1-.905-.9c-.053-1.544.532-1.863.693-1.863l1.011-.053c.692-.213.532-1.277.744-1.915a.784.784,0,0,0,.054-.373c0-.745-.319-1.81-.319-2.768,0-.852.213-2.343.213-3.566,0-.585-.16-1.118-.16-1.757,0-1.011.212-2.076.212-3.247-.053-.373-1.171-.692-1.65-.8-.319-.107-.425-.533-.425-.905A1.759,1.759,0,0,1,23.686.907a.567.567,0,0,1,.585-.269c.8,0,1.012-.053,1.706-.053.745,0,1.118.16,2.342.16.85,0,1.86-.107,2.819-.107A4.851,4.851,0,0,1,32.895.9c1.117.319,1.757.16,1.757.745a1.309,1.309,0,0,1-.905,1.277,2.01,2.01,0,0,0-1.171,1.757,24.1,24.1,0,0,0-.266,3.992c.053,3.141.266,3.354.266,4.844,0,.8-.053,1.6-.053,2.288a2.276,2.276,0,0,0,.213,1.224c.107.213.266.266.533.266a6.475,6.475,0,0,0,1.809-.319,2.306,2.306,0,0,0,.267-.053c.106,0,.213-.053.319-.053a6.312,6.312,0,0,1,1.384-.107,20.491,20.491,0,0,1,2.661.266,3.738,3.738,0,0,0,.8.054c1.171,0,2.343-.213,3.726-.319.746,0,1.384.266,2.077.266.319-.16.266-.905.372-2.023a3.994,3.994,0,0,0,.054-.8c0-.852-.16-1.7-.16-2.873,0-.958-.16-1.438-.16-2.183a6.874,6.874,0,0,1,.16-1.331c.053-.532.053-1.065.053-1.65,0-1.118-.053-2.234-.053-2.821,0-.958-1.384-.107-1.544-1.7a1.04,1.04,0,0,1-.053-.375c0-1.011,1.065-.852,2.289-1.065A7.2,7.2,0,0,1,48.758,0c.8,0,1.6.16,3.779.16,1.171,0,1.81.107,2.023.532a.906.906,0,0,1,.266.585,1.245,1.245,0,0,1-.372.692c-.425.638-1.171.266-1.384.958A4.057,4.057,0,0,0,52.8,4.683c0,.532.054,1.118.054,1.65.053,1.118.107,2.609.107,3.78a35.812,35.812,0,0,0,.532,4.738c.053.746.107,1.171.107,1.6,0,.852-.107,1.438-.107,3.354a32.544,32.544,0,0,0,.319,5.536c.266,2.024.266,6.708.266,7.347,0,.426,1.011,1.011,1.6,1.011.692.107.958.372.958,1.171,0,.533-.266.638-.692.638-.213,0-.532-.053-.8-.053-.692,0-2.183.16-3.46.266-1.438,0-2.609-.054-3.674-.054-.479,0-1.011,0-1.65.054-.638,0-.852-.266-.852-.585s.106-.533.106-.746c0-.585.638-1.011,1.011-1.544A12.794,12.794,0,0,0,47,29.807c0-1.544-.053-5.057-.16-5.909s-.213-3.83-.532-4.046a6.076,6.076,0,0,0-2.448-.958,3.669,3.669,0,0,0-.693.107,3.655,3.655,0,0,1-1.277.16c-.693,0-1.277-.107-1.863-.107-.213,0-.373.054-.533.054-1.277.16-2.448.053-3.673.213-1.118.107-2.13-.053-2.715.479a1.427,1.427,0,0,0-.373,1.171c0,3.034.107,3.62.107,4.791,0,2.5-.107,3.46-.107,4.684A39.176,39.176,0,0,1,31.295,38.8a6.087,6.087,0,0,1-.693,2.183c-.532.958-.532,2.077-.958,2.821-.16.267-.638,1.118-1.277,2.076a22.348,22.348,0,0,1,3.673,2.184,29.569,29.569,0,0,0,5.856,3.46c.426,0,1.384.852,2.661,1.331a15.343,15.343,0,0,0,5.164,1.224c1.544.053,3.353.479,5,.107,1.7-.373,3.355-.9,4.205-2.023a7.578,7.578,0,0,0,1.915-4.631c0-2.077-.425-2.715-.9-3.035s-1.81-1.544-2.5-1.6-2.661-.319-3.034.107S49.022,45.3,47.9,45.3a1.483,1.483,0,0,1-1.65-1.7c0-1.118,1.6-2.553,3.779-2.553s4.632.479,5.909,1.49a7.553,7.553,0,0,1,2.129,2.076,6.645,6.645,0,0,1,.8,3.46c.105,1.491-1.6,4.95-2.715,6.015A12.814,12.814,0,0,1,52.108,56.8a21.27,21.27,0,0,1-3.353.746,35.124,35.124,0,0,1-4.9-.319c-1.757-.213-2.076-.638-3.886-.958-.426-.053-1.651-1.171-2.928-1.6a27.705,27.705,0,0,1-2.821-1.6c-.958-.532-2.98-1.544-3.62-1.97-.319-.266-2.288-1.6-3.992-2.715a8.274,8.274,0,0,1-1.224,1.384c-1.6,1.331-3.141,2.5-3.567,2.5s-.8.9-1.384,1.224a26.318,26.318,0,0,1-5,1.915c-.9.052-2.076.267-4.365.267-3.78,0-6.122-.8-6.814-1.331s-1.915-.906-2.5-1.651A9.162,9.162,0,0,1,0,46.952c0-2.608,2.5-5.43,4.472-6.495a11.321,11.321,0,0,1,5.856-1.437c3.034,0,4.9.479,5.43.9a4.885,4.885,0,0,0,2.608.746c.533-.107,1.332.425,2.29.852a18.489,18.489,0,0,1,3.566,1.758c.585-1.915,1.171-5.43,1.171-13.415,0-.693-.16-1.438-.213-3.46m-2.234,19.8a4.347,4.347,0,0,1-1.118-1.064c-.426-.693-1.65-1.118-2.715-1.438s-1.277-1.118-2.821-1.6A20.912,20.912,0,0,0,11.5,40.886a12.256,12.256,0,0,0-3.993,0c-1.224.213-1.171-.16-2.5.852S2.5,43.544,2.179,44.343a6.346,6.346,0,0,0-.8,2.821,3.926,3.926,0,0,0,.373,2.4c.532.692,1.277,1.118,1.384,1.757a2.63,2.63,0,0,0,1.544,1.651C5.319,53.18,8.567,54.4,10,54.352a9.114,9.114,0,0,0,3.354-.319,27.027,27.027,0,0,0,5.111-2.182c1.224-.532,1.065-1.277,1.491-1.171s1.224-1.437,1.757-1.97a10.774,10.774,0,0,0,1.224-2.5" transform="translate(0.004)" fill="#4a647d"/>
        <path id="パス_457" data-name="パス 457" d="M144.863,46.876a1.951,1.951,0,0,0,1.544-1.171c.107-.745.267-1.065,1.065-1.065.533,0,.852.266.852.9a2.545,2.545,0,0,1-1.011,2.077,18.106,18.106,0,0,1-1.6,1.224,5.757,5.757,0,0,1-2.981.533c-1.33,0-2.234-.905-2.768-.905-.852-.479-1.277-1.6-1.6-2.023-.107-.107-.585-1.7-.693-1.7-.638,0-1.277,1.544-1.757,2.023a4.108,4.108,0,0,1-2.4,1.49c-1.011,0-1.224.746-3.088.852a11.74,11.74,0,0,1-3.511-.372c-.054,0-.16-.053-.213-.053-.107,0-.16-.053-.266-.053a6.527,6.527,0,0,1-3.353-1.7,4.808,4.808,0,0,1-1.118-2.343,22.437,22.437,0,0,0-1.544-3.247,4.576,4.576,0,0,1-.213-1.49c0-.905.16-2.076.213-3.247.16-1.97,1.437-3.353,1.969-4.578.479-1.171.638-1.011,1.171-1.437a11.779,11.779,0,0,0,2.234-2.129,3.3,3.3,0,0,1,2.13-.692,11.889,11.889,0,0,1,2.768-.905,2.837,2.837,0,0,1,1.118-.16,14.4,14.4,0,0,1,2.553.479c1.331.213,2.873,2.553,2.821,2.5a2.606,2.606,0,0,1,2.183-2.342,9,9,0,0,1,1.863-.213,3.518,3.518,0,0,1,.745.053,2.37,2.37,0,0,0,.586.054c.479,0,.479-.213,1.384-.319a2.468,2.468,0,0,1,.532-.053c.638,0,.692.372,1.011.905a1.386,1.386,0,0,1,.16.585.492.492,0,0,1-.479.532c-.479,0-1.6.373-1.81.958a4.7,4.7,0,0,0-.266,1.491,5.481,5.481,0,0,1,.053.958c0,1.33-.107,2.768-.107,5.164.053.692.053,1.224.053,1.757,0,1.011-.053,1.757-.053,4.311,0,2.234.852,3.354,1.81,3.354m-9.1-16.023c-.479-.532-1.224-1.384-2.023-1.384a4.241,4.241,0,0,0-1.491-.373,1.6,1.6,0,0,0-.958.319,14.123,14.123,0,0,0-1.97,1.385c-.958.8-.852,1.7-1.225,2.928a11.937,11.937,0,0,0-.745,4.365,38.835,38.835,0,0,0,.16,4.2A4.364,4.364,0,0,0,129,45.281l.213.212a2.331,2.331,0,0,0,1.6.692,3.171,3.171,0,0,0,2.608-1.171c1.118-.958,1.651-.638,1.651-1.437s1.33-1.65,1.6-2.661a4.358,4.358,0,0,0,.107-1.224c0-.958-.107-2.129-.213-3.619a6.458,6.458,0,0,1-.053-1.012c0-1.6.266-2.661.266-3.192a.229.229,0,0,0-.053-.159c-.16-.054-.373-.213-.958-.852" transform="translate(-61.02 -13.552)" fill="#4a647d"/>
        <path id="パス_458" data-name="パス 458" d="M179.3,55.935c0-1.384-.213-2.023-.213-3.3v-.373c.053-1.224.213-1.863.213-3.034,0-.266-.053-.638-.053-.958-.107-1.544-.16-1.915-.16-2.821V43.424c0-1.171,0-2.234-.053-2.927s-.054-1.7-.054-2.928V34.8a23.3,23.3,0,0,0-.159-3.3c-.107-.746-.319-1.7-.638-1.7-.319.107-.8.692-1.331.692-.319-.053-.533-.692-.533-1.224,0-.107.054-.213.054-.319.107-.532,0-1.011,1.011-1.065h2.98a13.171,13.171,0,0,0,3.141-.266,3.664,3.664,0,0,1,.692-.107c.533,0,1.011.16,1.065.638a13.177,13.177,0,0,1-.426,1.7,6.168,6.168,0,0,0-.053,1.118v1.969a3.851,3.851,0,0,0,.107,1.118c.16-.16,1.544-2.553,2.288-3.354a12.824,12.824,0,0,1,3.192-2.449c.16,0,.266-.107.426-.107a14.044,14.044,0,0,1,3.192-.8,1.186,1.186,0,0,1,.479.053,11.914,11.914,0,0,1,4.045,2.13,10.183,10.183,0,0,1,2.608,4.951,12.834,12.834,0,0,1,.107,2.022,16.776,16.776,0,0,1-.16,2.553,22.325,22.325,0,0,1-1.438,4.738c-.319.585-.053,1.065-.638,1.6-.8.692-.533.746-1.065,1.438a9.144,9.144,0,0,1-2.023,1.6c-.586.373-1.225.373-1.757.852a3.993,3.993,0,0,1-2.076.638,3.282,3.282,0,0,1-.693-.053,6.494,6.494,0,0,0-1.969-.266,12.13,12.13,0,0,0-1.277.053c-1.224,0-2.553-1.33-3.088-1.33-.053,0-.107.053-.107.159,0,.373.266,1.438.319,2.4,0,.958.107,1.7.107,2.553a11.019,11.019,0,0,1-.213,2.13,1.579,1.579,0,0,0-.1.751,18.829,18.829,0,0,0,.319,2.5c.213,1.225.16,1.81.746,2.5.266.319.744.532.744,1.171-.053.638-.053.746-.9.958-.107,0-.16.053-.213.053a2.7,2.7,0,0,1-1.065.213,5.527,5.527,0,0,1-.852-.053c-1.011-.16-.585-.373-2.023-.373-1.543.053-2.288.213-2.661.213a5.1,5.1,0,0,0-1.491-.266.825.825,0,0,1-.905-.852.4.4,0,0,1,.054-.266c.213-.479,1.438-.745,1.757-.745s.373-.267.479-2.769a18.036,18.036,0,0,0,.266-2.661M185,41.72a20.344,20.344,0,0,0,.8,3.78c.213,1.011.852,1.438,1.863,1.969.958.479,1.224.266,2.13.586a2.028,2.028,0,0,0,.9.213,2.629,2.629,0,0,0,1.65-.533,4.106,4.106,0,0,0,1.118-2.234A13.806,13.806,0,0,0,194,42.146c.107-1.224.107-2.873.16-5.27a10.8,10.8,0,0,0-.373-2.715c-.266-1.118-1.915-3.192-3.46-3.247-.106,0-.213-.107-.373-.107-.266,0-.585.319-1.117.745l-.16.16a20.565,20.565,0,0,0-1.863,2.662,8.9,8.9,0,0,0-1.384,3.192A40.376,40.376,0,0,0,185,41.715" transform="translate(-89.498 -13.88)" fill="#4a647d"/>
        <path id="パス_459" data-name="パス 459" d="M234.761,55.934c0-1.384-.213-2.023-.213-3.3v-.373c.053-1.224.213-1.863.213-3.034,0-.266-.053-.638-.053-.958-.107-1.544-.16-1.915-.16-2.821V43.424c0-1.171,0-2.234-.053-2.927s-.054-1.7-.054-2.928V34.8a23.317,23.317,0,0,0-.159-3.3c-.107-.746-.319-1.7-.638-1.7-.319.107-.8.692-1.331.692-.319-.053-.533-.692-.533-1.224,0-.107.054-.213.054-.319.107-.532,0-1.011,1.012-1.065h2.98a13.169,13.169,0,0,0,3.141-.266,3.666,3.666,0,0,1,.692-.107c.533,0,1.011.16,1.065.638a13.242,13.242,0,0,1-.426,1.7,6.179,6.179,0,0,0-.053,1.118v1.969a3.873,3.873,0,0,0,.107,1.118c.16-.16,1.544-2.553,2.289-3.354a12.826,12.826,0,0,1,3.192-2.449c.16,0,.266-.107.426-.107a14.044,14.044,0,0,1,3.192-.8,1.182,1.182,0,0,1,.479.053,11.916,11.916,0,0,1,4.046,2.13,10.178,10.178,0,0,1,2.608,4.951,12.837,12.837,0,0,1,.107,2.022,16.774,16.774,0,0,1-.16,2.553,22.321,22.321,0,0,1-1.438,4.738c-.319.585-.053,1.065-.638,1.6-.8.692-.533.746-1.065,1.438a9.132,9.132,0,0,1-2.024,1.6c-.585.373-1.224.373-1.757.852a3.992,3.992,0,0,1-2.076.638,3.283,3.283,0,0,1-.693-.053,6.494,6.494,0,0,0-1.969-.266,12.129,12.129,0,0,0-1.277.053c-1.224,0-2.553-1.33-3.088-1.33-.053,0-.107.053-.107.159,0,.373.266,1.438.319,2.4,0,.958.107,1.7.107,2.553a11.05,11.05,0,0,1-.213,2.13,1.579,1.579,0,0,0-.107.746,18.845,18.845,0,0,0,.319,2.5c.213,1.225.16,1.81.746,2.5.266.319.744.532.744,1.171-.053.638-.053.746-.9.958-.107,0-.16.053-.213.053a2.705,2.705,0,0,1-1.065.213,5.524,5.524,0,0,1-.852-.053c-1.012-.16-.585-.373-2.023-.373-1.543.053-2.288.213-2.661.213a5.1,5.1,0,0,0-1.491-.266.825.825,0,0,1-.905-.852.4.4,0,0,1,.054-.266c.213-.479,1.438-.745,1.757-.745s.373-.267.479-2.769a18.032,18.032,0,0,0,.266-2.661m5.7-14.213a20.289,20.289,0,0,0,.8,3.78c.213,1.011.852,1.438,1.863,1.969.958.479,1.224.266,2.13.586a2.031,2.031,0,0,0,.905.213,2.628,2.628,0,0,0,1.65-.533,4.106,4.106,0,0,0,1.118-2.234,13.809,13.809,0,0,0,.532-3.354c.107-1.224.107-2.873.16-5.27a10.8,10.8,0,0,0-.373-2.715c-.266-1.118-1.915-3.192-3.46-3.247-.106,0-.213-.107-.373-.107-.266,0-.585.319-1.117.745l-.16.16a20.5,20.5,0,0,0-1.863,2.662,8.9,8.9,0,0,0-1.384,3.192,40.38,40.38,0,0,0-.426,4.149" transform="translate(-117.647 -13.88)" fill="#4a647d"/>
        <path id="パス_460" data-name="パス 460" d="M297.713,48.312c0-1.277.16-3.407.16-4.259a5.312,5.312,0,0,0-.479-2.342c-.054,0-.054.053-.107.213a15.526,15.526,0,0,1-1.49,2.981c-.479,1.065-1.011,1.171-1.915,2.234a6.1,6.1,0,0,1-2.768,1.757A3.1,3.1,0,0,1,290.1,49c-.426,0-.958,0-1.7-.053a12.926,12.926,0,0,1-3.83-1.224c-1.118-.373-1.915-2.024-2.13-2.609a11.639,11.639,0,0,1-.426-2.608c-.053-.585-.159-2.023-.159-3.247a9.972,9.972,0,0,1,.053-1.331c0-.266.053-.532.053-.852,0-.852-.106-1.757-.106-2.715V32.609c0-1.331-.054-2.821-.107-3.192-.107-.533-.585-.533-1.277-.533-.373,0-.533-.372-.533-.8a3.088,3.088,0,0,1,.107-.692c.053-.266.479-.319,1.012-.319.426,0,.745.053,1.065.053a10.673,10.673,0,0,0,2.822-.319,2.792,2.792,0,0,1,.958-.107,11.116,11.116,0,0,1,2.183.266c.319.107.426.426.426.8,0,.638-.479.9-.479,1.65,0,.372.053.905.053,1.544v.8a7.574,7.574,0,0,0-.053,1.065c0,1.065.106,2.076.106,3.141v.9a8.66,8.66,0,0,0-.053,1.118c0,1.118.107,2.023.107,2.928,0,1.915.585,2.715.745,3.886.16,1.384,1.011,1.118,1.491,1.6a.857.857,0,0,0,.479.16,3.367,3.367,0,0,0,1.544-.638A3.706,3.706,0,0,0,294.365,44a23.269,23.269,0,0,0,1.7-3.14c.373-.906,1.011-2.873,1.438-3.886a2.988,2.988,0,0,0,.319-1.544c0-.533-.053-1.171-.053-1.97a11.828,11.828,0,0,0-.319-3.247,8.971,8.971,0,0,1-.213-2.234c.053-.745.745-.585,1.49-.691s1.863,0,2.929-.16c1.117-.16,1.81-.107,2.767-.319a4.189,4.189,0,0,1,.852-.107,1.664,1.664,0,0,1,1.224.373.319.319,0,0,1,.054.213c0,.372-.373.745-.852,1.171-.533.425-.852.266-1.438.479a.55.55,0,0,0-.373.585c0,.426.106.905.16,1.65,0,1.491-.107,2.5-.107,3.726.053,1.757.053,2.981.053,3.83,0,3.192.373,5.057.373,7.08A14.969,14.969,0,0,1,304,49.378a16.276,16.276,0,0,1-.106,1.915c-.107.426.106,1.491.106,2.928a12.435,12.435,0,0,1-.532,3.886c-.479.906-.426,2.29-1.011,2.873a4.724,4.724,0,0,0-.852,1.97.415.415,0,0,0,.16.373,18.085,18.085,0,0,1,3.138,1.868,29.585,29.585,0,0,0,5.856,3.46c.426,0,1.385.852,2.661,1.331.054,0,.107.053.16.053a15.054,15.054,0,0,0,5,1.171c1.065.053,2.342.266,3.511.266a6.733,6.733,0,0,0,1.49-.16c1.7-.373,3.354-.905,4.206-2.024a7.58,7.58,0,0,0,1.915-4.631c0-2.076-.426-2.715-.9-3.034s-1.81-1.544-2.5-1.6a17.068,17.068,0,0,0-1.915-.107,1.864,1.864,0,0,0-1.118.213c-.373.426-1.384,2.29-2.5,2.29a1.483,1.483,0,0,1-1.65-1.7c0-1.118,1.6-2.553,3.78-2.553s4.632.479,5.909,1.491a7.553,7.553,0,0,1,2.129,2.076c.905,2.183.905,2.288.905,3.939,0,2.449-1.757,4.525-2.822,5.536a12.792,12.792,0,0,1-4.046,2.715,21.321,21.321,0,0,1-3.353.746,35.13,35.13,0,0,1-4.9-.319c-1.757-.213-2.077-.638-3.886-.958-.426-.053-1.651-1.171-2.928-1.6a27.642,27.642,0,0,1-2.821-1.6c-.958-.533-2.981-1.544-3.62-1.97-.319-.266-2.289-1.6-3.992-2.715a8.29,8.29,0,0,1-1.224,1.383c-1.6,1.332-3.141,2.5-3.567,2.5s-.8.9-1.382,1.215a26.387,26.387,0,0,1-5,1.915,43.717,43.717,0,0,1-4.365.266c-3.78,0-6.122-.8-6.814-1.33s-1.915-.9-2.5-1.65a9.163,9.163,0,0,1-1.757-5.749c0-2.609,2.5-5.43,4.472-6.495a11.322,11.322,0,0,1,5.856-1.438c3.034,0,4.9.479,5.43.9a5.525,5.525,0,0,0,2.768.745,7.61,7.61,0,0,1,2.13.852,18.449,18.449,0,0,1,3.565,1.759,29.857,29.857,0,0,0,.638-4.685c.054-.638.054-1.97.054-3.247,0-1.011.053-2.023.053-2.553,0-.213-.107-1.224-.107-1.6M295.8,63.327a4.329,4.329,0,0,1-1.118-1.065c-.426-.693-1.65-1.118-2.715-1.438s-1.277-1.118-2.822-1.6A20.845,20.845,0,0,0,284.356,58a22.4,22.4,0,0,0-2.288-.16,9.639,9.639,0,0,0-1.7.16c-1.224.213-1.171-.16-2.5.852s-2.5,1.81-2.821,2.608a6.354,6.354,0,0,0-.8,2.821c0,1.384.053,1.969.373,2.4.532.692,1.277,1.118,1.384,1.757a2.63,2.63,0,0,0,1.544,1.65,22.331,22.331,0,0,0,5.324,1.384,11.894,11.894,0,0,0,3.354-.319,26.991,26.991,0,0,0,5.11-2.183c1.331-.585.958-1.171,1.544-1.171.426,0,1.171-1.438,1.7-1.97a10.8,10.8,0,0,0,1.224-2.5" transform="translate(-138.494 -13.551)" fill="#4a647d"/>
        <g id="グループ_314" data-name="グループ 314" transform="translate(127.082 -41.41)">
          <path id="パス_455" data-name="パス 455" d="M271.625,156.231c-.426-1.065-1.544-2.4-1.969-3.3a9.8,9.8,0,0,1-.533-2.662c-.213-1.171-1.384-2.234-1.915-3.141-.479-.905-.479-1.915-1.012-2.982s-1.7-3.619-1.81-3.83a6.028,6.028,0,0,0-2.343-.532c-.319,0-.532-.373-.532-.746a1.468,1.468,0,0,1,.8-1.384,2.682,2.682,0,0,1,.638-.107c.852,0,1.915.319,3.353.373,1.172,0,1.118-.266,2.076-.373,1.172,0,1.7.16,2.4.16.479,0,.852.692.852,1.224a.62.62,0,0,1-.107.373c-.053.053-.16.107-.16.213a7.336,7.336,0,0,0,.905,2.129,25.217,25.217,0,0,0,2.076,3.887,5.207,5.207,0,0,1,1.065,2.5,2.334,2.334,0,0,0,1.491,1.757c.319,0,.373-.479.8-1.384a16.784,16.784,0,0,0,1.33-3.354,13.1,13.1,0,0,1,.852-2.448,13.416,13.416,0,0,0,.852-3.141c0-.319-.957-.213-1.118-.373-.107-.053-.107-.107-.107-.213a2.286,2.286,0,0,1,.533-1.277c.426-.319,1.915-.213,2.4-.319a1.341,1.341,0,0,1,.532-.053,14.63,14.63,0,0,1,1.6.16c.533.107,1.6.053,1.6.532a1.09,1.09,0,0,1-.8,1.118c-.585.16-1.118-.053-1.7.426-.638.532-.426,1.011-1.118,2.715s-1.277,1.81-1.757,3.035c-.479,1.277-.533,2.076-1.011,3.407-.426,1.277-1.332,2.716-1.6,3.511-.319.8-.638,3.035-1.065,3.94a10.638,10.638,0,0,0-.852,1.81,12.493,12.493,0,0,1,.107,1.277c-.107.638-.267,1.277-.586,2.553-.532,1.915-.479,2.821-1.384,4.149a16.79,16.79,0,0,0-1.6,2.928,8.777,8.777,0,0,1-1.33,2.448c-.852,1.224-1.81,1.171-2.449,1.81-.692.638-2.343.8-3.939.8-1.544,0-3.674-.852-4.1-2.076-.372-1.012-1.064-1.757-1.064-2.929a2.777,2.777,0,0,1,2.5-2.448,3.03,3.03,0,0,1,1.544.585,3.3,3.3,0,0,1,.746,1.863c0,.585-.532,1.065-.532,1.7a1.759,1.759,0,0,0,1.491,1.385,5.415,5.415,0,0,0,3.939-2.024c.319-.319.692-.373.958-.692a11.171,11.171,0,0,0,.426-1.224,15.943,15.943,0,0,0,1.118-2.182c.266-1.118.638-2.982.852-4.206.052-.319-.267-2.288-.213-2.714-.373-.905-.746-1.6-1.118-2.662" transform="translate(-131.927 -69.653)" fill="#4a647d"/>
          <path id="パス_461" data-name="パス 461" d="M317.8,128.679c0-.638,0-1.224.638-1.6a3.007,3.007,0,0,0,1.332-1.81,6.444,6.444,0,0,0,.159-1.224,3.108,3.108,0,0,0-.745-1.81,2.5,2.5,0,0,1-.425-1.6V120c.106-.958.957-1.757,1.33-2.449a1.877,1.877,0,0,1,1.384-.373,8.8,8.8,0,0,1,1.97.214c.745.159,1.65,1.81,1.65,2.608.053.533.213,1.331.213,1.97a1.525,1.525,0,0,1-.213.905,6.217,6.217,0,0,1-.958,2.023,6.3,6.3,0,0,0-1.225,1.81c-.266.373-.585,1.171-1.065,1.224-.585.107-1.064,1.011-1.49,1.118a2.873,2.873,0,0,1-1.438.638c-.958-.053-1.118-.479-1.118-1.011" transform="translate(-161.307 -59.475)" fill="#4a647d"/>
          <path id="パス_462" data-name="パス 462" d="M339.581,156.754c.852,0,1.171-.692,1.491-1.33a1.936,1.936,0,0,0,.107-.745c0-2.024-1.011-3.511-3.62-4.525-1.117-.426-1.065-1.118-1.81-1.224a6.761,6.761,0,0,1-3.674-2.4,6.689,6.689,0,0,1-1.064-3.407,3.718,3.718,0,0,1,.8-2.715,9.286,9.286,0,0,1,2.661-2.5,30.547,30.547,0,0,1,2.928-1.171,9.489,9.489,0,0,1,2.821-.426,8.137,8.137,0,0,1,1.6.16,28.8,28.8,0,0,0,3.088.426c.638.053.905-.426,1.6-.107s.532,1.011.319,2.13a13.427,13.427,0,0,0-.319,2.5,5.059,5.059,0,0,1-.319,2.13c-.266.533-1.81.533-1.969-.266s-.958-1.544-1.438-2.553-.905-1.864-1.438-1.864-1.065-.532-1.7-.532a.83.83,0,0,0-.585.159c-.638.532-.745.905-.745,2.183a2.553,2.553,0,0,0,1.065,2.343,13.6,13.6,0,0,0,3.088,1.757c1.331.638,2.076.8,2.768,1.81a7.985,7.985,0,0,1,1.756,4.1,10.6,10.6,0,0,1-.532,3.674,6.027,6.027,0,0,1-1.491,2.075c-.692.852-.745,1.225-1.757,1.81a7.686,7.686,0,0,1-3.94.905c-1.917.107-4.631-1.224-5.589-1.224-.852,0-2.4.8-2.821.373s-.213-2.822-.213-3.887-.266-2.608-.266-3.511.319-1.81,1.065-1.7,1.065.213,1.544,1.331a15.766,15.766,0,0,0,3.034,3.726c.852.8,1.065,1.277,1.49,1.438a2.734,2.734,0,0,0,2.076,1.064" transform="translate(-167.689 -69.19)" fill="#4a647d"/>
          <path id="パス_463" data-name="パス 463" d="M146.237,115.652a28.046,28.046,0,0,1,2.608,4.9,19.6,19.6,0,0,1,.852,4.95,35.393,35.393,0,0,1-1.064,8.251,20.1,20.1,0,0,1-3.62,6.069c-.958.852-2.234,1.384-3.3,2.449s-3.511,1.6-4.951,1.863a28.383,28.383,0,0,1-4.311.213c-1.118,0-2.98.319-4.365.319-1.011.054-2.661.319-3.94.319a3.83,3.83,0,0,1-1.171-.106,16.179,16.179,0,0,0-3.511-.319,1.157,1.157,0,0,1-1.118-1.171,2.056,2.056,0,0,1,.319-1.065.839.839,0,0,1,.692-.373c.319,0,.586.16,1.171.213.479,0,.692-.319.746-1.384,0-.745-.054-2.022-.054-3.247a17.275,17.275,0,0,1,.16-2.661,5.873,5.873,0,0,0,.106-1.33c0-.693-.053-1.384-.053-2.289,0-2.29-.159-3.461-.159-4.578a4.813,4.813,0,0,1,.159-1.33,4.646,4.646,0,0,0,.16-1.277c0-.958-.16-2.13-.16-3.192,0-3.566.16-3.46.107-4.472,0-1.277.107-2.715.532-3.192a2.606,2.606,0,0,1,1.651-.958,19.892,19.892,0,0,1,2.4-.319,1.794,1.794,0,0,1,1.757,2.076c-.107.638-.107-1.331-.107,2.661l.16,3.354a18.318,18.318,0,0,1-.053,1.863,12.235,12.235,0,0,0,.107,1.915c0,.319.054.8.054,1.277,0,1.49-.107,3.511-.107,5.217,0,1.544-.106,2.5-.106,3.511,0,.479.053.905.106,1.6a24.779,24.779,0,0,1,.373,4.1c0,.638-.107,1.171-.107,1.7a1.752,1.752,0,0,0,.372,1.277,2.068,2.068,0,0,0,1.171.213,18.569,18.569,0,0,0,2.342-.16c.16,0,.319-.053.479-.053a22.259,22.259,0,0,0,4.416-1.118c1.331-.373,2.024-1.171,2.928-2.608a22.618,22.618,0,0,0,2.715-6.495c0-.267.054-.693.054-1.224a79.872,79.872,0,0,0-.479-8.943c-.319-1.81-2.183-4.788-3.353-6.388-1.224-1.65-2.023-3.46-3.511-3.992-.693-.319-2.873-2.076-3.94-2.076a11.914,11.914,0,0,0-3.992-.532,23.977,23.977,0,0,0-5.217.319,14.832,14.832,0,0,0-3.83.745c-1.115.532-2.448,1.011-3.992,1.757a9.024,9.024,0,0,0-3.034,1.97,28.829,28.829,0,0,0-2.716,3.354c-.426.744-1.118,2.288-1.863,3.461s0,2.5-.425,3.353.425,2.5.532,3.3a6.357,6.357,0,0,0,1.118,2.927,8.618,8.618,0,0,0,2.234,1.491c.852.426,2.821.107,3.034.107a5.282,5.282,0,0,0,1.757-.852c.319-.319.479-.8.852-1.065a3.638,3.638,0,0,0,1.224-2.288,2.785,2.785,0,0,0-.746-2.608,3.24,3.24,0,0,0-2.715-.745,2.214,2.214,0,0,1,.532,1.33,1.654,1.654,0,0,1-1.544,1.491,1.8,1.8,0,0,1-1.81-1.97c0-1.491,1.544-2.4,2.821-2.4a7.122,7.122,0,0,1,2.873.586c1.33.426,2.234,1.915,2.234,4.149,0,1.6-.693,1.97-.8,2.715-.107.9-1.277,1.437-1.81,1.969a7.078,7.078,0,0,1-4.365,1.118c-2.182,0-3.034-.107-4.472-1.012a8.286,8.286,0,0,1-3.78-5.163c-.266-1.331-.852-2.5-.532-3.192s.319-2.553.744-3.939a16.642,16.642,0,0,1,2.715-4.525,14.554,14.554,0,0,1,3.886-3.353,14.453,14.453,0,0,1,3.619-1.97,4.944,4.944,0,0,0,1.97-.852c1.331-1.011,2.553-.532,5.962-1.331a26.932,26.932,0,0,1,9.423-.319,19.15,19.15,0,0,1,8.358,2.449,27.582,27.582,0,0,1,6.6,5.536" transform="translate(-52.213 -54.517)" fill="#4a647d"/>
          <path id="パス_464" data-name="パス 464" d="M230.185,157.4a1.953,1.953,0,0,0,1.543-1.173c.107-.746.266-1.065,1.065-1.065.533,0,.852.266.852.9a2.544,2.544,0,0,1-1.011,2.075,18,18,0,0,1-1.6,1.224,5.757,5.757,0,0,1-2.981.533c-1.33,0-2.234-.9-2.769-.9-.852-.479-1.277-1.6-1.6-2.024-.107-.106-.585-1.7-.693-1.7-.638,0-1.277,1.544-1.757,2.023a4.108,4.108,0,0,1-2.4,1.49c-1.011,0-1.224.746-3.088.852a11.753,11.753,0,0,1-3.511-.373c-.054,0-.16-.054-.214-.054-.106,0-.159-.053-.266-.053a6.522,6.522,0,0,1-3.353-1.7,4.806,4.806,0,0,1-1.118-2.342,22.4,22.4,0,0,0-1.544-3.247,4.589,4.589,0,0,1-.213-1.491c0-.9.16-2.076.213-3.247.159-1.969,1.437-3.353,1.969-4.578.479-1.171.638-1.011,1.171-1.438a11.768,11.768,0,0,0,2.234-2.13,3.3,3.3,0,0,1,2.13-.692,11.954,11.954,0,0,1,2.768-.905,2.845,2.845,0,0,1,1.118-.16,14.4,14.4,0,0,1,2.553.479c1.331.213,2.873,2.553,2.821,2.5a2.6,2.6,0,0,1,2.183-2.342,8.966,8.966,0,0,1,1.863-.213,3.51,3.51,0,0,1,.744.053,2.4,2.4,0,0,0,.586.053c.479,0,.479-.213,1.384-.319a2.42,2.42,0,0,1,.532-.054c.638,0,.692.373,1.012.905a1.393,1.393,0,0,1,.16.586.492.492,0,0,1-.479.532c-.479,0-1.6.373-1.81.958a4.7,4.7,0,0,0-.266,1.491,5.485,5.485,0,0,1,.053.958c0,1.331-.107,2.769-.107,5.164.053.693.053,1.224.053,1.757,0,1.011-.053,1.757-.053,4.311,0,2.234.852,3.354,1.81,3.354m-9.1-16.023c-.479-.532-1.225-1.384-2.023-1.384a4.253,4.253,0,0,0-1.491-.373,1.6,1.6,0,0,0-.958.319,14.145,14.145,0,0,0-1.97,1.384c-.958.8-.852,1.7-1.224,2.928a11.942,11.942,0,0,0-.745,4.365,38.87,38.87,0,0,0,.16,4.205,4.361,4.361,0,0,0,1.491,2.981l.213.213a2.331,2.331,0,0,0,1.6.692,3.172,3.172,0,0,0,2.608-1.171c1.118-.958,1.651-.638,1.651-1.438s1.33-1.65,1.6-2.661a4.358,4.358,0,0,0,.107-1.224c0-.958-.107-2.129-.213-3.619a6.4,6.4,0,0,1-.054-1.011c0-1.6.267-2.661.267-3.192a.234.234,0,0,0-.053-.16c-.16-.053-.373-.213-.958-.852" transform="translate(-104.328 -69.652)" fill="#4a647d"/>
        </g>
      </g>
    </g>
    <g id="グループ_290" data-name="グループ 290" transform="translate(9270.717 173.337)">
      <g id="グループ_287" data-name="グループ 287">
        <g id="グループ_286" data-name="グループ 286" clip-path="url(#clip-path-2)">
          <path id="パス_663" data-name="パス 663" d="M79.135,65.425c-12.265,0-24.463-7.6-29.56-18.942C43.9,33.862,47.3,17.9,57.657,8.528,67.811-.661,84.071-2.675,96.324,3.736a29.367,29.367,0,0,1,13.444,13.889,33.6,33.6,0,0,1,2.537,13.835c-.018,6.343-1.294,15.364-7.274,22.32C99.966,59.672,92.1,63.8,83.447,65.106a28.813,28.813,0,0,1-4.31.321m4.256-.683ZM80.675.731A33.764,33.764,0,0,0,58.149,9.068c-10.13,9.165-13.454,24.775-7.906,37.115,5.567,12.382,19.8,20.2,33.094,18.2,8.481-1.28,16.187-5.319,21.137-11.08,5.836-6.785,7.08-15.624,7.1-21.844A32.936,32.936,0,0,0,109.1,17.918,28.649,28.649,0,0,0,95.983,4.382,33.066,33.066,0,0,0,80.675.729" transform="translate(-23.97 -0.003)" fill="#4a647d"/>
          <path id="パス_664" data-name="パス 664" d="M58.472,31.531a.372.372,0,0,1-.114-.018.366.366,0,0,1-.233-.462C61.579,20.542,71.032,12.243,81.646,10.4c10.954-1.9,22.673,3.165,28.5,12.323a.366.366,0,0,1-.618.393C103.855,14.2,92.441,9.266,81.77,11.119c-10.354,1.8-19.578,9.9-22.952,20.158a.366.366,0,0,1-.348.254" transform="translate(-29.731 -5.117)" fill="#4a647d"/>
          <path id="パス_665" data-name="パス 665" d="M92.315,104.459a27.257,27.257,0,0,1-20.5-9.316.367.367,0,0,1,.558-.478,26.075,26.075,0,0,0,44.589-8.976.366.366,0,0,1,.7.225A27.2,27.2,0,0,1,97.44,103.953a25.98,25.98,0,0,1-5.121.507" transform="translate(-36.7 -43.722)" fill="#4a647d"/>
          <path id="パス_666" data-name="パス 666" d="M214.674,63.865l-.046,0-1.979-.245a.366.366,0,0,1-.321-.368l.324-28.125a1.675,1.675,0,0,1-.59.065,2.125,2.125,0,0,1-1.584-.9A4.443,4.443,0,0,1,210,31.508a50.186,50.186,0,0,1,5.657-20.219.366.366,0,0,1,.69.191c-1.077,19.4-1.5,36.418-1.305,52.013a.366.366,0,0,1-.366.371m-1.607-.935,1.236.152c-.18-15.025.218-31.371,1.218-49.895a49.49,49.49,0,0,0-4.789,18.365,3.79,3.79,0,0,0,.36,2.325,1.389,1.389,0,0,0,1.02.579.758.758,0,0,0,.641-.234.366.366,0,0,1,.642.244Z" transform="translate(-107.438 -5.676)" fill="#4a647d"/>
          <path id="パス_667" data-name="パス 667" d="M213.476,64.862h-.021a.366.366,0,0,1-.347-.363q-.051-6.471.071-12.98c-.045-1.012-.08-2.008-.1-2.974a.365.365,0,0,1,.173-.318q.126-4.935.352-9.869a.368.368,0,0,1-.073-.214q-.031-2.291.034-4.588c-.019.1-.037.19-.057.286q0,.257.007.514a.351.351,0,0,1-.02.126,4.047,4.047,0,0,1-.286,1.522.366.366,0,0,1-.7-.09c-.006-.039-.01-.078-.015-.118-.044-.023-.086-.051-.128-.076l-.031.393a.366.366,0,0,1-.729.02q-.064-.486-.109-.976a.513.513,0,0,1-.124.019.366.366,0,0,1-.355-.33q-.055-.542-.079-1.084a.423.423,0,0,1-.083,0,.367.367,0,0,1-.326-.393,57.236,57.236,0,0,1,5.125-19.682.366.366,0,1,1,.665.307q-.145.314-.286.629a.369.369,0,0,1,.073.2.366.366,0,0,1,.507.424q-.315,1.218-.6,2.441h.01a.366.366,0,0,1,.276.406q-.6,4.516-1.077,9.083-.141,2.326-.257,4.66c-.126,3.369-.165,6.731-.2,10.022-.047,4.1-.095,8.311-.31,12.553,0,.193,0,.385,0,.577.021,1.025.054,2.068.086,3.1.065,2.078.132,4.226.107,6.16a.366.366,0,0,1-.361.361h-.005a.366.366,0,0,1-.366-.351c0-.069-.006-.138-.008-.207q-.027.244-.055.487a.367.367,0,0,1-.364.324" transform="translate(-107.721 -6.896)" fill="#4a647d"/>
          <path id="パス_668" data-name="パス 668" d="M11.312,79.788a.366.366,0,0,1-.363-.319A299.58,299.58,0,0,1,8.48,42.854a.365.365,0,0,1,.3-.362,13.427,13.427,0,0,1,1.486-.2.365.365,0,0,1,.4.352c.414,12.2,1.347,24.524,2.775,36.637a.365.365,0,0,1-.344.406l-1.763.1h-.02m-2.1-36.625a298.976,298.976,0,0,0,2.417,35.88l1.034-.057c-1.389-11.882-2.3-23.964-2.72-35.925-.2.022-.433.051-.73.1" transform="translate(-4.339 -21.639)" fill="#4a647d"/>
          <path id="パス_669" data-name="パス 669" d="M13.311,79.693a.366.366,0,0,1-.359-.3c-.051-.262-.1-.5-.163-.72a.366.366,0,0,1-.71-.016q-.172-.743-.326-1.526a24.515,24.515,0,0,1-.824-5.616c-.214-2.051-.365-4.272-.457-6.681q-.04-.951-.058-1.9a.366.366,0,0,1,.188-.327l-.355-4.988a.364.364,0,0,1,.063-.233A83.333,83.333,0,0,1,9.9,48.451a.4.4,0,0,1,.008-.073q0-2.9.186-5.794a.366.366,0,0,1,.365-.344h.007a.366.366,0,0,1,.359.355l.023.83a.367.367,0,0,1,.006.093v.04l.284,10.42a.365.365,0,0,1-.166.318l.117,2.037c.027-.838.067-1.54.123-2.061a.366.366,0,0,1,.73.039c0,4.631,1.089,20.264,1.735,24.966a.367.367,0,0,1-.3.412.345.345,0,0,1-.059.005m-.865-4.076a.377.377,0,0,1,.094.019c-.145-1.537-.294-3.321-.439-5.2.1,1.925.216,3.716.345,5.176" transform="translate(-5.063 -21.614)" fill="#4a647d"/>
          <path id="パス_670" data-name="パス 670" d="M5.021,30.373c-1.914,0-3.209-.605-3.941-1.835a7.148,7.148,0,0,1-.808-2.7,25.26,25.26,0,0,1-.164-5.913.374.374,0,0,1,.03-.11L.6,18.787a.366.366,0,0,1,.686.051,18.528,18.528,0,0,1,.623,3.23l.012.118a2.994,2.994,0,0,0,.372,1.429.926.926,0,0,0,.636.371.436.436,0,0,0,.361-.109,1.2,1.2,0,0,0,.224-.728,13.4,13.4,0,0,0,.012-2.114l-.006-.073A2.917,2.917,0,0,1,3.974,18.7a.826.826,0,0,1,.487-.286.663.663,0,0,1,.526.141,1.366,1.366,0,0,1,.4.921l.2,2.953c.014.212.112,1.269.64,1.31.277.035.534-.29.612-.591a3.125,3.125,0,0,0,.033-.969c-.007-.117-.015-.234-.019-.351A5.857,5.857,0,0,1,7.767,18.5a.361.361,0,0,1,.315-.168.367.367,0,0,1,.309.179,5.676,5.676,0,0,1,.59,2.842c.031,1.337.026,2.694-.015,4.033a8.086,8.086,0,0,1-.589,3.284A2.769,2.769,0,0,1,6.31,30.294a11.191,11.191,0,0,1-1.289.08M.831,20.061A24.982,24.982,0,0,0,1,25.736a6.52,6.52,0,0,0,.71,2.428c.732,1.23,2.166,1.675,4.516,1.4h0A2.048,2.048,0,0,0,7.717,28.35a7.486,7.486,0,0,0,.517-2.988c.04-1.326.045-2.67.014-3.995a7.233,7.233,0,0,0-.211-1.838A5.125,5.125,0,0,0,7.583,21.8c0,.109.011.219.018.329a3.7,3.7,0,0,1-.056,1.2,1.442,1.442,0,0,1-1.377,1.138c-.755-.058-1.234-.784-1.315-1.993l-.2-2.952a.856.856,0,0,0-.1-.369.515.515,0,0,0-.038.038,2.339,2.339,0,0,0-.265,1.72l.006.074a14.045,14.045,0,0,1-.013,2.23A1.789,1.789,0,0,1,3.8,24.4a1.171,1.171,0,0,1-.94.313,1.651,1.651,0,0,1-1.167-.679,3.623,3.623,0,0,1-.5-1.781l-.012-.116a17.937,17.937,0,0,0-.341-2.1Z" transform="translate(-0.004 -9.377)" fill="#4a647d"/>
          <path id="パス_671" data-name="パス 671" d="M4.731,30.483H4.714a.367.367,0,0,1-.3-.2c-.022-.042-.044-.084-.065-.126a.365.365,0,0,1-.32.037.876.876,0,0,1-.09-.038.366.366,0,0,1-.627-.038q-.132-.247-.254-.5a.366.366,0,0,1-.444-.072,2.306,2.306,0,0,1-.267-.35.349.349,0,0,1-.132-.061,2.327,2.327,0,0,1-.767-1.469q-.117-.538-.209-1.08A16.9,16.9,0,0,1,1.008,20.6a.366.366,0,1,1,.725.1q-.031.219-.057.44l.193,2.53a.35.35,0,0,1,.114-.026.371.371,0,0,1,.377.261.365.365,0,0,1,.345.3l.138.831a.366.366,0,0,1,.284-.174.386.386,0,0,1,.254.077.366.366,0,0,1,.66.12q.1.427.181.858L4.17,24.848a.367.367,0,0,1,.272-.373,47.411,47.411,0,0,1,.152-4.78.366.366,0,0,1,.732.027l.032,4.785q.042-.317.089-.634a.366.366,0,0,1,.355-.312.355.355,0,0,1,.366.3c.034.189.059.379.076.568a.366.366,0,0,1,.639.254v.051a3.87,3.87,0,0,1,.152-.378.366.366,0,0,1,.647-.036c.08-.644.181-1.283.279-1.91l.358-2.272a.366.366,0,0,1,.728.073l-.331,7.5v.008a.362.362,0,0,1-.015.232.391.391,0,0,1-.348.336.334.334,0,0,1-.21-.058,5.963,5.963,0,0,1-.423,1.671.366.366,0,0,1-.3.219.6.6,0,0,1-.277-.035.406.406,0,0,1-.072.079.367.367,0,0,1-.294.078.787.787,0,0,1-.551-.384c-.034.094-.073.189-.115.282a.369.369,0,0,1-.382.211.373.373,0,0,1-.1-.026.362.362,0,0,1-.119.051.366.366,0,0,1-.412-.19.964.964,0,0,1-.071.125.367.367,0,0,1-.3.165m3.726-2.309Z" transform="translate(-0.431 -9.904)" fill="#4a647d"/>
        </g>
      </g>
      <g id="グループ_289" data-name="グループ 289">
        <g id="グループ_288" data-name="グループ 288" clip-path="url(#clip-path-2)">
          <path id="パス_672" data-name="パス 672" d="M70.983,60.665l.43,11.31c.024.627,1,.629.977,0l-.43-11.31c-.024-.627-1-.629-.977,0" transform="translate(-36.32 -30.8)" fill="#4a647d"/>
          <path id="パス_673" data-name="パス 673" d="M73.479,60.041q1.261,2.621,2.752,5.122a.493.493,0,0,0,.843,0c.979-1.963,1.662-4.037,2.486-6.063h-.94L81.4,68.878a.489.489,0,0,0,.942-.26L79.562,58.84a.493.493,0,0,0-.941,0c-.794,1.949-1.449,3.943-2.39,5.829h.843q-1.49-2.5-2.752-5.121c-.272-.566-1.116-.072-.843.493" transform="translate(-37.57 -29.93)" fill="#4a647d"/>
          <path id="パス_674" data-name="パス 674" d="M99.76,56.886l4.91-.648a.507.507,0,0,0,.488-.488c0-.237-.225-.523-.488-.488l-4.91.648a.507.507,0,0,0-.488.488c0,.237.225.524.488.488" transform="translate(-50.795 -28.275)" fill="#4a647d"/>
          <path id="パス_675" data-name="パス 675" d="M96.761,58a60.977,60.977,0,0,0,.978,8.688,12.367,12.367,0,0,0,.254,1.906c.235.746,1.005.59,1.617.524q2.731-.294,5.461-.6c.618-.069.625-1.046,0-.977q-2.415.27-4.831.532a5.256,5.256,0,0,0-1.26.136l-.158.01c.088.09.118.088.09-.006-.009-.152-.034-.3-.051-.449-.075-.615-.161-1.228-.251-1.84A53.583,53.583,0,0,1,97.738,58a.489.489,0,0,0-.977,0" transform="translate(-49.511 -29.434)" fill="#4a647d"/>
          <path id="パス_676" data-name="パス 676" d="M99.982,68.173l4.578-.59a.5.5,0,0,0,.488-.488.491.491,0,0,0-.488-.488l-4.578.59a.5.5,0,0,0-.488.488.491.491,0,0,0,.488.488" transform="translate(-50.909 -34.081)" fill="#4a647d"/>
          <path id="パス_677" data-name="パス 677" d="M116.875,56.122a102.128,102.128,0,0,0,1.332,10.758c.11.618,1.051.355.941-.26a99.8,99.8,0,0,1-1.3-10.5c-.044-.624-1.02-.628-.977,0" transform="translate(-59.801 -28.476)" fill="#4a647d"/>
          <path id="パス_678" data-name="パス 678" d="M118.386,54.371c2.195,2.565,4.148,5.325,6.343,7.89a.493.493,0,0,0,.834-.345q.051-5.84.1-11.68a.489.489,0,0,0-.977,0q-.051,5.84-.1,11.68l.834-.345c-2.195-2.565-4.148-5.325-6.343-7.89-.409-.479-1.1.215-.691.691" transform="translate(-60.512 -25.463)" fill="#4a647d"/>
          <path id="パス_679" data-name="パス 679" d="M139.917,50.5a23.954,23.954,0,0,0,.353,6.262c.321,1.684.779,3.6,2.093,4.805a2.791,2.791,0,0,0,4.15-.337c1.158-1.373,1.311-3.47,1.482-5.182a27.962,27.962,0,0,0-.224-7.079c-.1-.619-1.038-.355-.941.26a27,27,0,0,1,.189,6.819c-.167,1.675-.328,4.753-2.363,5.3-2.066.551-2.952-2.615-3.278-4.044a22.9,22.9,0,0,1-.484-6.8c.047-.627-.93-.624-.977,0" transform="translate(-71.558 -24.875)" fill="#4a647d"/>
        </g>
      </g>
    </g>
  </g>
</svg>
